<svg width="644" height="53" viewBox="0 0 644 53" fill="none" xmlns="http://www.w3.org/2000/svg">
<path d="M35.16 31.264H20.76V22.336H35.16C43.368 22.336 49.992 28.96 49.992 37.168C49.992 45.376 43.368 52 35.16 52H25.728C11.832 51.928 0.6 40.696 0.6 26.8C0.6 12.832 11.904 1.528 25.872 1.528H44.088V10.456H25.872C16.8 10.456 9.528 17.728 9.528 26.8C9.528 35.8 16.8 43.072 25.872 43.072H35.16C43.008 43.072 43.008 31.264 35.16 31.264ZM104.102 16.288V52H95.1737V16.288C95.1737 12.544 94.5977 10.096 92.1497 10.096C88.0457 10.096 84.3737 16.432 82.7177 19.096L61.4057 52H50.7497L72.0617 19.096C79.4057 7.72 84.1577 1.168 93.9497 1.168C99.9977 1.168 104.102 6.784 104.102 16.288ZM126.913 43.072H145.633V52H126.913C118.705 52 112.009 45.304 112.009 37.096V1.528H120.937V37.096C120.937 40.408 123.601 43.072 126.913 43.072ZM153.58 52V1.528H162.508V52H153.58ZM185.306 43.072H204.026V52H185.306C177.098 52 170.402 45.304 170.402 37.096V1.528H179.33V37.096C179.33 40.408 181.994 43.072 185.306 43.072ZM251.876 52H233.516C219.62 51.856 208.388 40.624 208.388 26.728C208.388 12.76 219.692 1.456 233.66 1.456H251.876V10.384H233.66C224.66 10.384 217.316 17.656 217.316 26.728C217.316 35.728 224.66 43.072 233.66 43.072H251.876V52ZM244.964 31.192H228.188V22.264H244.964V31.192ZM281.993 0.951996C296.177 0.951996 307.769 12.472 307.769 26.728C307.769 40.912 296.177 52.504 281.993 52.504C267.737 52.504 256.217 40.912 256.217 26.728C256.217 12.472 267.737 0.951996 281.993 0.951996ZM281.993 43.576C291.209 43.576 298.841 35.872 298.841 26.656C298.841 17.44 291.209 9.88 281.993 9.88C272.777 9.88 265.145 17.44 265.145 26.656C265.145 35.872 272.777 43.576 281.993 43.576ZM378.137 52H359.777C345.881 51.856 334.649 40.624 334.649 26.728C334.649 12.76 345.953 1.456 359.849 1.456H378.137V10.384H359.849C350.849 10.384 343.577 17.656 343.577 26.728C343.577 35.728 350.849 43.072 359.849 43.072H378.137V52ZM439.416 16.288V52H430.488V16.288C430.488 12.544 429.912 10.096 427.464 10.096C423.36 10.096 419.688 16.432 418.032 19.096L396.72 52H386.064L407.376 19.096C414.72 7.72 419.472 1.168 429.264 1.168C435.312 1.168 439.416 6.784 439.416 16.288ZM447.323 52V37.096C447.323 28.888 453.947 22.264 462.155 22.264H474.179C481.955 22.264 481.955 10.384 474.179 10.384H447.323V1.456H474.179C482.387 1.456 489.011 8.08 489.011 16.288C489.011 23.92 483.323 30.184 475.907 31.048V31.192H462.155C458.843 31.192 456.251 33.856 456.251 37.096V52H447.323ZM496.911 52V1.528H505.839V52H496.911ZM530.148 52V10.384H513.732V1.456H555.564V10.384H539.076V52H530.148ZM602.398 16.288V52H593.47V16.288C593.47 12.544 592.894 10.096 590.446 10.096C586.342 10.096 582.67 16.432 581.014 19.096L559.702 52H549.046L570.358 19.096C577.702 7.72 582.454 1.168 592.246 1.168C598.294 1.168 602.398 6.784 602.398 16.288ZM625.209 43.072H643.929V52H625.209C617.001 52 610.305 45.304 610.305 37.096V1.528H619.233V37.096C619.233 40.408 621.897 43.072 625.209 43.072Z" fill="url(#paint0_radial_1_215)"/>
<defs>
<radialGradient id="paint0_radial_1_215" cx="0" cy="0" r="1" gradientUnits="userSpaceOnUse" gradientTransform="translate(493.673 19.0489) rotate(115.059) scale(71.5556 407.657)">
<stop offset="0.00887753" stop-color="#DEF9FA"/>
<stop offset="0.1723" stop-color="#BEF3F5"/>
<stop offset="0.4204" stop-color="#9DEDF0"/>
<stop offset="0.5512" stop-color="#7DE7EB"/>
<stop offset="0.7154" stop-color="#5CE1E6"/>
<stop offset="1" stop-color="#33BBCF"/>
</radialGradient>
</defs>
</svg>
