<svg width="570" height="113" viewBox="0 0 570 113" fill="none" xmlns="http://www.w3.org/2000/svg">
<path d="M23.44 21.176H13.84V15.224H23.44C28.912 15.224 33.328 19.64 33.328 25.112C33.328 30.584 28.912 35 23.44 35H17.152C7.888 34.952 0.4 27.464 0.4 18.2C0.4 8.888 7.936 1.352 17.248 1.352H29.392V7.304H17.248C11.2 7.304 6.352 12.152 6.352 18.2C6.352 24.2 11.2 29.048 17.248 29.048H23.44C28.672 29.048 28.672 21.176 23.44 21.176ZM52.1504 35.096C44.6624 35.096 38.6144 29.048 38.6144 21.56V1.4H44.5664V21.56C44.5664 25.736 47.9744 29.144 52.1504 29.144C56.3264 29.144 59.6864 25.736 59.6864 21.56V1.4H65.6384V21.56C65.6384 29.048 59.5904 35.096 52.1504 35.096ZM70.9225 35V1.352H76.8745V35H70.9225ZM94.4249 35H82.1369V29.048H94.2809C100.329 29.048 105.177 24.152 105.177 18.152C105.177 12.104 100.329 7.256 94.2809 7.256H82.1369V1.304H94.2809C103.593 1.304 111.129 8.84 111.129 18.152C111.129 27.416 103.641 34.904 94.4249 35ZM116.414 35V1.352H122.366V35H116.414ZM160.22 1.304V25.064C160.22 32.504 156.476 35 154.172 35C149.468 35 147.74 33.128 143.612 24.44L138.812 14.36C137.372 11.288 133.34 1.976 133.58 11.192V35H127.628V11.192C127.628 3.752 131.324 1.304 133.628 1.304C138.38 1.304 140.06 3.128 144.188 11.816L149.18 22.28C150.908 26.12 154.508 33.656 154.268 25.064V1.304H160.22ZM188.554 21.176H178.954V15.224H188.554C194.026 15.224 198.442 19.64 198.442 25.112C198.442 30.584 194.026 35 188.554 35H182.266C173.002 34.952 165.514 27.464 165.514 18.2C165.514 8.888 173.05 1.352 182.362 1.352H194.506V7.304H182.362C176.314 7.304 171.466 12.152 171.466 18.2C171.466 24.2 176.314 29.048 182.362 29.048H188.554C193.786 29.048 193.786 21.176 188.554 21.176ZM230.365 35V20.984C225.133 19.88 222.637 13.208 221.101 10.424L216.349 1.352H223.069L226.381 7.64C228.157 10.76 229.981 15.224 231.949 15.224C236.509 15.224 235.837 15.896 240.301 7.64L243.613 1.352H250.333L245.581 10.424C243.997 13.208 241.549 19.88 236.317 20.984V35H230.365ZM266.779 0.967998C276.235 0.967998 283.963 8.648 283.963 18.152C283.963 27.608 276.235 35.336 266.779 35.336C257.275 35.336 249.595 27.608 249.595 18.152C249.595 8.648 257.275 0.967998 266.779 0.967998ZM266.779 29.384C272.923 29.384 278.011 24.248 278.011 18.104C278.011 11.96 272.923 6.92 266.779 6.92C260.635 6.92 255.547 11.96 255.547 18.104C255.547 24.248 260.635 29.384 266.779 29.384ZM301.58 35.096C294.092 35.096 288.044 29.048 288.044 21.56V1.4H293.996V21.56C293.996 25.736 297.404 29.144 301.58 29.144C305.756 29.144 309.116 25.736 309.116 21.56V1.4H315.068V21.56C315.068 29.048 309.02 35.096 301.58 35.096ZM343.917 35V7.256H332.973V1.304H360.861V7.256H349.869V35H343.917ZM389.356 35V20.984H372.076V35H366.124V1.352H372.076V15.032H389.356V1.352H395.308V35H389.356ZM422.237 20.408L430.013 35H423.293L419.981 28.664C418.157 25.544 416.381 21.128 414.413 21.128H410.477C408.317 21.128 406.541 22.904 406.541 25.064V35H400.589V25.064C400.589 19.592 405.005 15.176 410.477 15.176H418.493C423.725 15.176 423.725 7.256 418.493 7.256H400.589V1.304H418.493C429.341 1.304 432.221 16.328 422.237 20.408ZM448.862 0.967998C458.318 0.967998 466.046 8.648 466.046 18.152C466.046 27.608 458.318 35.336 448.862 35.336C439.358 35.336 431.678 27.608 431.678 18.152C431.678 8.648 439.358 0.967998 448.862 0.967998ZM448.862 29.384C455.006 29.384 460.094 24.248 460.094 18.104C460.094 11.96 455.006 6.92 448.862 6.92C442.718 6.92 437.63 11.96 437.63 18.104C437.63 24.248 442.718 29.384 448.862 29.384ZM483.663 35.096C476.175 35.096 470.127 29.048 470.127 21.56V1.4H476.079V21.56C476.079 25.736 479.487 29.144 483.663 29.144C487.839 29.144 491.199 25.736 491.199 21.56V1.4H497.151V21.56C497.151 29.048 491.103 35.096 483.663 35.096ZM525.475 21.176H515.875V15.224H525.475C530.947 15.224 535.363 19.64 535.363 25.112C535.363 30.584 530.947 35 525.475 35H519.187C509.923 34.952 502.435 27.464 502.435 18.2C502.435 8.888 509.971 1.352 519.283 1.352H531.427V7.304H519.283C513.235 7.304 508.387 12.152 508.387 18.2C508.387 24.2 513.235 29.048 519.283 29.048H525.475C530.707 29.048 530.707 21.176 525.475 21.176ZM563.881 35V20.984H546.601V35H540.649V1.352H546.601V15.032H563.881V1.352H569.833V35H563.881ZM11.344 112V84.256H0.4V78.304H28.288V84.256H17.296V112H11.344ZM56.7839 112V97.984H39.5039V112H33.5519V78.352H39.5039V92.032H56.7839V78.352H62.7359V112H56.7839ZM97.0083 112H84.7682C75.5042 111.904 68.0162 104.416 68.0162 95.152C68.0162 85.84 75.5522 78.304 84.8643 78.304H97.0083V84.256H84.8643C78.8643 84.256 73.9682 89.104 73.9682 95.152C73.9682 101.152 78.8643 106.048 84.8643 106.048H97.0083V112ZM92.4003 98.128H81.2162V92.176H92.4003V98.128ZM144.098 87.952V102.544C144.098 102.544 143.858 106.144 144.674 106.144C145.346 106.144 145.826 104.512 147.17 101.056L156.242 78.4H162.626L153.602 101.056C150.914 108.4 148.562 112.096 143.81 112.096C140.45 112.096 138.146 108.64 138.146 102.544V87.952C138.146 87.952 138.338 84.352 137.522 84.352C136.946 84.352 136.514 85.504 135.554 87.952H135.602L130.37 101.056C127.682 108.4 125.33 112.096 120.578 112.096C117.218 112.096 114.914 108.64 114.914 102.544V78.4H120.866V102.544C120.866 102.544 120.626 106.144 121.442 106.144C122.114 106.144 122.594 104.512 123.938 101.056L128.642 89.248C131.33 82.048 133.682 78.4 138.386 78.4C141.746 78.4 144.098 81.808 144.098 87.952ZM191.126 112V97.984H173.846V112H167.894V78.352H173.846V92.032H191.126V78.352H197.078V112H191.126ZM218.323 77.968C227.779 77.968 235.507 85.648 235.507 95.152C235.507 104.608 227.779 112.336 218.323 112.336C208.819 112.336 201.139 104.608 201.139 95.152C201.139 85.648 208.819 77.968 218.323 77.968ZM218.323 106.384C224.467 106.384 229.555 101.248 229.555 95.104C229.555 88.96 224.467 83.92 218.323 83.92C212.179 83.92 207.091 88.96 207.091 95.104C207.091 101.248 212.179 106.384 218.323 106.384ZM250.743 106.048H263.223V112H250.743C245.271 112 240.807 107.536 240.807 102.064V78.352H246.759V102.064C246.759 104.272 248.535 106.048 250.743 106.048ZM295.123 112H282.883C273.619 111.904 266.131 104.416 266.131 95.152C266.131 85.84 273.667 78.304 282.979 78.304H295.123V84.256H282.979C276.979 84.256 272.083 89.104 272.083 95.152C272.083 101.152 276.979 106.048 282.979 106.048H295.123V112ZM290.515 98.128H279.331V92.176H290.515V98.128ZM313.028 112V102.064C313.028 96.592 317.444 92.176 322.916 92.176H330.932C336.116 92.176 336.116 84.256 330.932 84.256H313.028V78.304H330.932C336.404 78.304 340.82 82.72 340.82 88.192C340.82 93.28 337.028 97.456 332.084 98.032V98.128H322.916C320.708 98.128 318.98 99.904 318.98 102.064V112H313.028ZM366.516 97.408L374.292 112H367.571L364.26 105.664C362.435 102.544 360.659 98.128 358.692 98.128H354.755C352.595 98.128 350.819 99.904 350.819 102.064V112H344.867V102.064C344.867 96.592 349.283 92.176 354.755 92.176H362.771C368.003 92.176 368.003 84.256 362.771 84.256H344.867V78.304H362.771C373.62 78.304 376.5 93.328 366.516 97.408ZM393.141 77.968C402.597 77.968 410.325 85.648 410.325 95.152C410.325 104.608 402.597 112.336 393.141 112.336C383.637 112.336 375.957 104.608 375.957 95.152C375.957 85.648 383.637 77.968 393.141 77.968ZM393.141 106.384C399.285 106.384 404.373 101.248 404.373 95.104C404.373 88.96 399.285 83.92 393.141 83.92C386.997 83.92 381.909 88.96 381.909 95.104C381.909 101.248 386.997 106.384 393.141 106.384ZM443.398 112H431.158C421.894 111.904 414.406 104.416 414.406 95.152C414.406 85.84 421.942 78.304 431.206 78.304H443.398V84.256H431.206C425.206 84.256 420.358 89.104 420.358 95.152C420.358 101.152 425.206 106.048 431.206 106.048H443.398V112ZM475.284 112H463.044C453.78 111.904 446.292 104.416 446.292 95.152C446.292 85.84 453.828 78.304 463.14 78.304H475.284V84.256H463.14C457.14 84.256 452.244 89.104 452.244 95.152C452.244 101.152 457.14 106.048 463.14 106.048H475.284V112ZM470.676 98.128H459.492V92.176H470.676V98.128ZM489.238 78.304H506.95V84.256H489.238C484.054 84.256 484.054 92.176 489.238 92.176H500.278C505.75 92.176 510.214 96.592 510.214 102.064C510.214 107.536 505.75 112 500.278 112H481.654V106.048H500.278C505.51 106.048 505.51 98.128 500.278 98.128H488.998C483.622 97.984 479.35 93.616 479.35 88.192C479.35 82.72 483.766 78.304 489.238 78.304ZM522.999 78.304H540.711V84.256H522.999C517.815 84.256 517.815 92.176 522.999 92.176H534.039C539.511 92.176 543.975 96.592 543.975 102.064C543.975 107.536 539.511 112 534.039 112H515.415V106.048H534.039C539.271 106.048 539.271 98.128 534.039 98.128H522.759C517.383 97.984 513.111 93.616 513.111 88.192C513.111 82.72 517.527 78.304 522.999 78.304Z" fill="white"/>
</svg>
