<svg width="559" height="105" viewBox="0 0 559 105" fill="none" xmlns="http://www.w3.org/2000/svg">
<path d="M21.665 23.045V9.365C21.665 9.365 21.845 5.99 21.08 5.99C20.45 5.99 20 7.475 18.74 10.715L10.235 32H4.25L12.71 10.715C15.23 3.875 17.435 0.409999 21.89 0.409999C25.04 0.409999 27.245 3.605 27.245 9.365V23.045C27.245 23.045 27.02 26.42 27.785 26.42C28.325 26.42 28.73 25.295 29.63 23H29.585L34.49 10.715C37.01 3.875 39.215 0.409999 43.67 0.409999C46.82 0.409999 49.025 3.605 49.025 9.365V32H43.445V9.365C43.445 9.365 43.625 5.99 42.86 5.99C42.23 5.99 41.78 7.475 40.52 10.715L36.11 21.785C33.635 28.58 31.385 32 26.975 32C23.825 32 21.665 28.76 21.665 23.045ZM53.9627 32V0.454998H59.5427V32H53.9627ZM95.0312 0.409999V22.685C95.0312 29.66 91.5212 32 89.3612 32C84.9512 32 83.3312 30.245 79.4612 22.1L74.9612 12.65C73.6112 9.77 69.8312 1.04 70.0562 9.68V32H64.4762V9.68C64.4762 2.705 67.9412 0.409999 70.1012 0.409999C74.5562 0.409999 76.1312 2.12 80.0012 10.265L84.6812 20.075C86.3012 23.675 89.6762 30.74 89.4512 22.685V0.409999H95.0312ZM99.9945 32V0.454998H105.575V32H99.9945ZM127.923 23.045V9.365C127.923 9.365 128.103 5.99 127.338 5.99C126.708 5.99 126.258 7.475 124.998 10.715L116.493 32H110.508L118.968 10.715C121.488 3.875 123.693 0.409999 128.148 0.409999C131.298 0.409999 133.503 3.605 133.503 9.365V23.045C133.503 23.045 133.278 26.42 134.043 26.42C134.583 26.42 134.988 25.295 135.888 23H135.843L140.748 10.715C143.268 3.875 145.473 0.409999 149.928 0.409999C153.078 0.409999 155.283 3.605 155.283 9.365V32H149.703V9.365C149.703 9.365 149.883 5.99 149.118 5.99C148.488 5.99 148.038 7.475 146.778 10.715L142.368 21.785C139.893 28.58 137.643 32 133.233 32C130.083 32 127.923 28.76 127.923 23.045ZM160.221 32V0.454998H165.801V32H160.221ZM180.994 21.02C174.379 24.89 176.089 26.42 180.049 26.42H196.204V32H180.049C172.219 32 170.734 27.455 170.734 24.845C170.734 20.795 174.289 18.455 176.854 16.925L185.629 12.11C191.569 8.825 193.639 6.035 187.744 6.035H172.084V0.454998H187.744C195.619 0.454998 197.104 5 197.104 7.565C197.104 11.93 193.099 14.27 190.489 15.8L180.994 21.02ZM226.973 32H215.498C206.813 31.91 199.793 24.89 199.793 16.205C199.793 7.475 206.858 0.409999 215.588 0.409999H226.973V5.99H215.588C209.963 5.99 205.373 10.535 205.373 16.205C205.373 21.83 209.963 26.42 215.588 26.42H226.973V32ZM222.653 18.995H212.168V13.415H222.653V18.995ZM243.447 32H231.927V26.42H243.312C248.982 26.42 253.527 21.83 253.527 16.205C253.527 10.535 248.982 5.99 243.312 5.99H231.927V0.409999H243.312C252.042 0.409999 259.107 7.475 259.107 16.205C259.107 24.89 252.087 31.91 243.447 32ZM275.894 22.775V0.499998H281.474V22.775C281.474 25.16 281.834 26.645 283.364 26.645C285.929 26.645 288.224 22.73 289.259 21.02L302.579 0.499998H309.239L295.919 21.02C291.329 28.13 288.314 32.225 282.239 32.225C278.459 32.225 275.894 28.76 275.894 22.775ZM323.523 0.0949977C332.388 0.0949977 339.633 7.295 339.633 16.205C339.633 25.07 332.388 32.315 323.523 32.315C314.613 32.315 307.413 25.07 307.413 16.205C307.413 7.295 314.613 0.0949977 323.523 0.0949977ZM323.523 26.735C329.283 26.735 334.053 21.92 334.053 16.16C334.053 10.4 329.283 5.675 323.523 5.675C317.763 5.675 312.993 10.4 312.993 16.16C312.993 21.92 317.763 26.735 323.523 26.735ZM353.916 26.42H365.616V32H353.916C348.786 32 344.601 27.815 344.601 22.685V0.454998H350.181V22.685C350.181 24.755 351.846 26.42 353.916 26.42ZM403.928 9.68V32H398.348V9.68C398.348 7.34 397.988 5.81 396.458 5.81C393.893 5.81 391.598 9.77 390.563 11.435L377.243 32H370.583L383.903 11.435C388.493 4.325 391.463 0.229999 397.583 0.229999C401.363 0.229999 403.928 3.74 403.928 9.68ZM419.13 32V5.99H408.87V0.409999H435.015V5.99H424.71V32H419.13ZM439.95 32V0.454998H445.53V32H439.95ZM459.779 26.42H471.479V32H459.779C454.649 32 450.464 27.815 450.464 22.685V0.454998H456.044V22.685C456.044 24.755 457.709 26.42 459.779 26.42ZM476.446 32V0.454998H482.026V32H476.446ZM497.219 32V5.99H486.959V0.409999H513.104V5.99H502.799V32H497.219ZM531.179 32V18.86C526.274 17.825 523.934 11.57 522.494 8.96L518.039 0.454998H524.339L527.444 6.35C529.109 9.275 530.819 13.46 532.664 13.46C536.939 13.46 536.309 14.09 540.494 6.35L543.599 0.454998H549.899L545.444 8.96C543.959 11.57 541.664 17.825 536.759 18.86V32H531.179ZM7.355 81.725C7.355 76.595 11.54 72.41 16.67 72.41H20.405C25.535 72.41 29.675 76.595 29.675 81.725C29.675 88.43 24.23 90.995 18.92 90.995C22.745 94.55 28.595 97.88 31.385 98.78L28.55 104C24.41 102.425 16.625 97.385 11.765 91.49C8.435 93.335 9.74 98.42 13.565 98.42H17.21V104H13.565C4.25 104 0.785 91.715 8.66 86.81C7.85 85.1 7.355 83.39 7.355 81.725ZM14.96 85.415H20.405C25.31 85.415 25.31 77.99 20.405 77.99H16.67C14.6 77.99 12.935 79.655 12.935 81.725C12.935 82.49 13.25 84.425 14.96 85.415ZM75.3525 104H63.8775C55.1925 103.91 48.1725 96.89 48.1725 88.205C48.1725 79.475 55.2375 72.41 63.9675 72.41H75.3525V77.99H63.9675C58.3425 77.99 53.7525 82.535 53.7525 88.205C53.7525 93.83 58.3425 98.42 63.9675 98.42H75.3525V104ZM71.0325 90.995H60.5475V85.415H71.0325V90.995ZM110.862 72.41V94.685C110.862 101.66 107.352 104 105.192 104C100.782 104 99.162 102.245 95.292 94.1L90.792 84.65C89.442 81.77 85.662 73.04 85.887 81.68V104H80.307V81.68C80.307 74.705 83.772 72.41 85.932 72.41C90.387 72.41 91.962 74.12 95.832 82.265L100.512 92.075C102.132 95.675 105.507 102.74 105.282 94.685V72.41H110.862ZM137.605 104V90.86H121.405V104H115.825V72.455H121.405V85.28H137.605V72.455H143.185V104H137.605ZM181.481 81.68V104H175.901V81.68C175.901 79.34 175.541 77.81 174.011 77.81C171.446 77.81 169.151 81.77 168.116 83.435L154.796 104H148.136L161.456 83.435C166.046 76.325 169.016 72.23 175.136 72.23C178.916 72.23 181.481 75.74 181.481 81.68ZM216.978 72.41V94.685C216.978 101.66 213.468 104 211.308 104C206.898 104 205.278 102.245 201.408 94.1L196.908 84.65C195.558 81.77 191.778 73.04 192.003 81.68V104H186.423V81.68C186.423 74.705 189.888 72.41 192.048 72.41C196.503 72.41 198.078 74.12 201.948 82.265L206.628 92.075C208.248 95.675 211.623 102.74 211.398 94.685V72.41H216.978ZM249.121 104H237.646C228.961 103.91 221.941 96.89 221.941 88.205C221.941 79.475 229.006 72.41 237.691 72.41H249.121V77.99H237.691C232.066 77.99 227.521 82.535 227.521 88.205C227.521 93.83 232.066 98.42 237.691 98.42H249.121V104ZM279.014 104H267.539C258.854 103.91 251.834 96.89 251.834 88.205C251.834 79.475 258.899 72.41 267.629 72.41H279.014V77.99H267.629C262.004 77.99 257.414 82.535 257.414 88.205C257.414 93.83 262.004 98.42 267.629 98.42H279.014V104ZM274.694 90.995H264.209V85.415H274.694V90.995ZM295.489 104H283.969V98.42H295.354C301.024 98.42 305.569 93.83 305.569 88.205C305.569 82.535 301.024 77.99 295.354 77.99H283.969V72.41H295.354C304.084 72.41 311.149 79.475 311.149 88.205C311.149 96.89 304.129 103.91 295.489 104ZM337.205 72.41H353.81V77.99H337.205C332.345 77.99 332.345 85.415 337.205 85.415H347.555C352.685 85.415 356.87 89.555 356.87 94.685C356.87 99.815 352.685 104 347.555 104H330.095V98.42H347.555C352.46 98.42 352.46 90.995 347.555 90.995H336.98C331.94 90.86 327.935 86.765 327.935 81.68C327.935 76.55 332.075 72.41 337.205 72.41ZM387.865 104H376.39C367.705 103.91 360.685 96.89 360.685 88.205C360.685 79.475 367.75 72.41 376.48 72.41H387.865V77.99H376.48C370.855 77.99 366.265 82.535 366.265 88.205C366.265 93.83 370.855 98.42 376.48 98.42H387.865V104ZM383.545 90.995H373.06V85.415H383.545V90.995ZM417.759 104H406.284C397.599 103.91 390.579 96.89 390.579 88.205C390.579 79.475 397.644 72.41 406.329 72.41H417.759V77.99H406.329C400.704 77.99 396.159 82.535 396.159 88.205C396.159 93.83 400.704 98.42 406.329 98.42H417.759V104ZM435.403 104.09C428.383 104.09 422.713 98.42 422.713 91.4V72.5H428.293V91.4C428.293 95.315 431.488 98.51 435.403 98.51C439.318 98.51 442.468 95.315 442.468 91.4V72.5H448.048V91.4C448.048 98.42 442.378 104.09 435.403 104.09ZM473.297 90.32L480.587 104H474.287L471.182 98.06C469.472 95.135 467.807 90.995 465.962 90.995H462.272C460.247 90.995 458.582 92.66 458.582 94.685V104H453.002V94.685C453.002 89.555 457.142 85.415 462.272 85.415H469.787C474.692 85.415 474.692 77.99 469.787 77.99H453.002V72.41H469.787C479.957 72.41 482.657 86.495 473.297 90.32ZM485.532 104V72.455H491.112V104H485.532ZM506.306 104V77.99H496.046V72.41H522.191V77.99H511.886V104H506.306ZM540.265 104V90.86C535.36 89.825 533.02 83.57 531.58 80.96L527.125 72.455H533.425L536.53 78.35C538.195 81.275 539.905 85.46 541.75 85.46C546.025 85.46 545.395 86.09 549.58 78.35L552.685 72.455H558.985L554.53 80.96C553.045 83.57 550.75 89.825 545.845 90.86V104H540.265Z" fill="white"/>
</svg>
