<svg width="803" height="162" viewBox="0 0 803 162" fill="none" xmlns="http://www.w3.org/2000/svg">
<path d="M17.3177 32V22.685C17.3177 17.555 21.4577 13.415 26.5877 13.415H34.1027C38.9627 13.415 38.9627 5.99 34.1027 5.99H17.3177V0.409999H34.1027C39.2327 0.409999 43.3727 4.55 43.3727 9.68C43.3727 14.45 39.8177 18.365 35.1827 18.905V18.995H26.5877C24.5177 18.995 22.8977 20.66 22.8977 22.685V32H17.3177ZM70.4047 9.68V32H64.8247V9.68C64.8247 7.34 64.4647 5.81 62.9347 5.81C60.3697 5.81 58.0747 9.77 57.0397 11.435L43.7197 32H37.0597L50.3797 11.435C54.9697 4.325 57.9397 0.229999 64.0597 0.229999C67.8397 0.229999 70.4047 3.74 70.4047 9.68ZM95.6416 18.32L102.932 32H96.6316L93.5266 26.06C91.8166 23.135 90.1516 18.995 88.3066 18.995H84.6166C82.5916 18.995 80.9266 20.66 80.9266 22.685V32H75.3466V22.685C75.3466 17.555 79.4866 13.415 84.6166 13.415H92.1316C97.0366 13.415 97.0366 5.99 92.1316 5.99H75.3466V0.409999H92.1316C102.302 0.409999 105.002 14.495 95.6416 18.32ZM115.895 32V5.99H105.635V0.409999H131.78V5.99H121.475V32H115.895ZM167.27 0.409999V22.685C167.27 29.66 163.76 32 161.6 32C157.19 32 155.57 30.245 151.7 22.1L147.2 12.65C145.85 9.77 142.07 1.04 142.295 9.68V32H136.715V9.68C136.715 2.705 140.18 0.409999 142.34 0.409999C146.795 0.409999 148.37 2.12 152.24 10.265L156.92 20.075C158.54 23.675 161.915 30.74 161.69 22.685V0.409999H167.27ZM199.414 32H187.939C179.254 31.91 172.234 24.89 172.234 16.205C172.234 7.475 179.299 0.409999 188.029 0.409999H199.414V5.99H188.029C182.404 5.99 177.814 10.535 177.814 16.205C177.814 21.83 182.404 26.42 188.029 26.42H199.414V32ZM195.094 18.995H184.609V13.415H195.094V18.995ZM224.663 18.32L231.953 32H225.653L222.548 26.06C220.838 23.135 219.173 18.995 217.328 18.995H213.638C211.613 18.995 209.948 20.66 209.948 22.685V32H204.368V22.685C204.368 17.555 208.508 13.415 213.638 13.415H221.153C226.058 13.415 226.058 5.99 221.153 5.99H204.368V0.409999H221.153C231.323 0.409999 234.023 14.495 224.663 18.32ZM276.09 9.455V23.135C276.09 23.135 275.865 26.51 276.63 26.51C277.26 26.51 277.71 24.98 278.97 21.74L287.475 0.499998H293.46L285 21.74C282.48 28.625 280.275 32.09 275.82 32.09C272.67 32.09 270.51 28.85 270.51 23.135V9.455C270.51 9.455 270.69 6.08 269.925 6.08C269.385 6.08 268.98 7.16 268.08 9.455H268.125L263.22 21.74C260.7 28.625 258.495 32.09 254.04 32.09C250.89 32.09 248.73 28.85 248.73 23.135V0.499998H254.31V23.135C254.31 23.135 254.085 26.51 254.85 26.51C255.48 26.51 255.93 24.98 257.19 21.74L261.6 10.67C264.12 3.92 266.325 0.499998 270.735 0.499998C273.885 0.499998 276.09 3.695 276.09 9.455ZM298.399 32V0.454998H303.979V32H298.399ZM319.172 32V5.99H308.912V0.409999H335.057V5.99H324.752V32H319.172ZM361.772 32V18.86H345.572V32H339.992V0.454998H345.572V13.28H361.772V0.454998H367.352V32H361.772ZM405.734 19.04H396.734V13.46H405.734C410.864 13.46 415.004 17.6 415.004 22.73C415.004 27.86 410.864 32 405.734 32H399.839C391.154 31.955 384.134 24.935 384.134 16.25C384.134 7.52 391.199 0.454998 399.929 0.454998H411.314V6.035H399.929C394.259 6.035 389.714 10.58 389.714 16.25C389.714 21.875 394.259 26.42 399.929 26.42H405.734C410.639 26.42 410.639 19.04 405.734 19.04ZM448.823 9.68V32H443.243V9.68C443.243 7.34 442.883 5.81 441.353 5.81C438.788 5.81 436.493 9.77 435.458 11.435L422.138 32H415.478L428.798 11.435C433.388 4.325 436.358 0.229999 442.478 0.229999C446.258 0.229999 448.823 3.74 448.823 9.68ZM463.08 26.42H474.78V32H463.08C457.95 32 453.765 27.815 453.765 22.685V0.454998H459.345V22.685C459.345 24.755 461.01 26.42 463.08 26.42ZM479.747 32V0.454998H485.327V32H479.747ZM499.576 26.42H511.276V32H499.576C494.446 32 490.261 27.815 490.261 22.685V0.454998H495.841V22.685C495.841 24.755 497.506 26.42 499.576 26.42ZM541.182 32H529.707C521.022 31.91 514.002 24.89 514.002 16.205C514.002 7.475 521.067 0.409999 529.797 0.409999H541.182V5.99H529.797C524.172 5.99 519.582 10.535 519.582 16.205C519.582 21.83 524.172 26.42 529.797 26.42H541.182V32ZM536.862 18.995H526.377V13.415H536.862V18.995ZM560.005 0.0949977C568.87 0.0949977 576.115 7.295 576.115 16.205C576.115 25.07 568.87 32.315 560.005 32.315C551.095 32.315 543.895 25.07 543.895 16.205C543.895 7.295 551.095 0.0949977 560.005 0.0949977ZM560.005 26.735C565.765 26.735 570.535 21.92 570.535 16.16C570.535 10.4 565.765 5.675 560.005 5.675C554.245 5.675 549.475 10.4 549.475 16.16C549.475 21.92 554.245 26.735 560.005 26.735ZM620.095 32H608.62C599.935 31.91 592.915 24.89 592.915 16.205C592.915 7.475 599.98 0.409999 608.665 0.409999H620.095V5.99H608.665C603.04 5.99 598.495 10.535 598.495 16.205C598.495 21.83 603.04 26.42 608.665 26.42H620.095V32ZM658.395 9.68V32H652.815V9.68C652.815 7.34 652.455 5.81 650.925 5.81C648.36 5.81 646.065 9.77 645.03 11.435L631.71 32H625.05L638.37 11.435C642.96 4.325 645.93 0.229999 652.05 0.229999C655.83 0.229999 658.395 3.74 658.395 9.68ZM663.337 32V22.685C663.337 17.555 667.477 13.415 672.607 13.415H680.122C684.982 13.415 684.982 5.99 680.122 5.99H663.337V0.409999H680.122C685.252 0.409999 689.392 4.55 689.392 9.68C689.392 14.45 685.837 18.365 681.202 18.905V18.995H672.607C670.537 18.995 668.917 20.66 668.917 22.685V32H663.337ZM694.329 32V0.454998H699.909V32H694.329ZM715.102 32V5.99H704.842V0.409999H730.987V5.99H720.682V32H715.102ZM760.258 9.68V32H754.678V9.68C754.678 7.34 754.318 5.81 752.788 5.81C750.223 5.81 747.928 9.77 746.893 11.435L733.573 32H726.913L740.233 11.435C744.823 4.325 747.793 0.229999 753.913 0.229999C757.693 0.229999 760.258 3.74 760.258 9.68ZM774.515 26.42H786.215V32H774.515C769.385 32 765.2 27.815 765.2 22.685V0.454998H770.78V22.685C770.78 24.755 772.445 26.42 774.515 26.42ZM34.0294 72.68V95H28.4494V72.68C28.4494 70.34 28.0894 68.81 26.5594 68.81C23.9944 68.81 21.6994 72.77 20.6644 74.435L7.34439 95H0.684387L14.0044 74.435C18.5944 67.325 21.5644 63.23 27.6844 63.23C31.4644 63.23 34.0294 66.74 34.0294 72.68ZM69.5263 63.41V85.685C69.5263 92.66 66.0163 95 63.8563 95C59.4463 95 57.8263 93.245 53.9563 85.1L49.4563 75.65C48.1063 72.77 44.3263 64.04 44.5513 72.68V95H38.9713V72.68C38.9713 65.705 42.4363 63.41 44.5963 63.41C49.0513 63.41 50.6263 65.12 54.4963 73.265L59.1763 83.075C60.7963 86.675 64.1713 93.74 63.9463 85.685V63.41H69.5263ZM86.0097 95H74.4897V89.42H85.8747C91.5447 89.42 96.0897 84.83 96.0897 79.205C96.0897 73.535 91.5447 68.99 85.8747 68.99H74.4897V63.41H85.8747C94.6047 63.41 101.67 70.475 101.67 79.205C101.67 87.89 94.6497 94.91 86.0097 95ZM145.636 95H134.161C125.476 94.91 118.456 87.89 118.456 79.205C118.456 70.475 125.521 63.41 134.251 63.41H145.636V68.99H134.251C128.626 68.99 124.036 73.535 124.036 79.205C124.036 84.83 128.626 89.42 134.251 89.42H145.636V95ZM141.316 81.995H130.831V76.415H141.316V81.995ZM159.456 79.25C157.296 76.865 155.991 73.67 155.046 71.96L150.591 63.455H156.891L159.996 69.35C161.661 72.275 163.371 76.46 165.216 76.46C169.671 76.46 168.861 77 173.046 69.35L176.151 63.455H182.451L177.996 71.96C177.051 73.67 175.746 76.865 173.586 79.25C175.746 81.59 177.051 84.785 177.996 86.495L182.451 95H176.151L173.046 89.105C171.381 86.18 169.671 82.04 167.826 82.04C163.371 82.04 164.181 81.5 159.996 89.105L156.891 95H150.591L155.046 86.495C155.991 84.785 157.296 81.59 159.456 79.25ZM187.383 95V85.685C187.383 80.555 191.523 76.415 196.653 76.415H204.168C209.028 76.415 209.028 68.99 204.168 68.99H187.383V63.41H204.168C209.298 63.41 213.438 67.55 213.438 72.68C213.438 77.45 209.883 81.365 205.248 81.905V81.995H196.653C194.583 81.995 192.963 83.66 192.963 85.685V95H187.383ZM243.314 95H231.839C223.154 94.91 216.134 87.89 216.134 79.205C216.134 70.475 223.199 63.41 231.929 63.41H243.314V68.99H231.929C226.304 68.99 221.714 73.535 221.714 79.205C221.714 84.83 226.304 89.42 231.929 89.42H243.314V95ZM238.994 81.995H228.509V76.415H238.994V81.995ZM268.564 81.32L275.854 95H269.554L266.449 89.06C264.739 86.135 263.074 81.995 261.229 81.995H257.539C255.514 81.995 253.849 83.66 253.849 85.685V95H248.269V85.685C248.269 80.555 252.409 76.415 257.539 76.415H265.054C269.959 76.415 269.959 68.99 265.054 68.99H248.269V63.41H265.054C275.224 63.41 277.924 77.495 268.564 81.32ZM280.799 95V63.455H286.379V95H280.799ZM318.492 95H307.017C298.332 94.91 291.312 87.89 291.312 79.205C291.312 70.475 298.377 63.41 307.107 63.41H318.492V68.99H307.107C301.482 68.99 296.892 73.535 296.892 79.205C296.892 84.83 301.482 89.42 307.107 89.42H318.492V95ZM314.172 81.995H303.687V76.415H314.172V81.995ZM354.002 63.41V85.685C354.002 92.66 350.492 95 348.332 95C343.922 95 342.302 93.245 338.432 85.1L333.932 75.65C332.582 72.77 328.802 64.04 329.027 72.68V95H323.447V72.68C323.447 65.705 326.912 63.41 329.072 63.41C333.527 63.41 335.102 65.12 338.972 73.265L343.652 83.075C345.272 86.675 348.647 93.74 348.422 85.685V63.41H354.002ZM386.145 95H374.67C365.985 94.91 358.965 87.89 358.965 79.205C358.965 70.475 366.03 63.41 374.715 63.41H386.145V68.99H374.715C369.09 68.99 364.545 73.535 364.545 79.205C364.545 84.83 369.09 89.42 374.715 89.42H386.145V95ZM416.039 95H404.564C395.879 94.91 388.859 87.89 388.859 79.205C388.859 70.475 395.924 63.41 404.654 63.41H416.039V68.99H404.654C399.029 68.99 394.439 73.535 394.439 79.205C394.439 84.83 399.029 89.42 404.654 89.42H416.039V95ZM411.719 81.995H401.234V76.415H411.719V81.995ZM443.085 95V68.99H432.825V63.41H458.97V68.99H448.665V95H443.085ZM485.685 95V81.86H469.485V95H463.905V63.455H469.485V76.28H485.685V63.455H491.265V95H485.685ZM523.395 95H511.92C503.235 94.91 496.215 87.89 496.215 79.205C496.215 70.475 503.28 63.41 512.01 63.41H523.395V68.99H512.01C506.385 68.99 501.795 73.535 501.795 79.205C501.795 84.83 506.385 89.42 512.01 89.42H523.395V95ZM519.075 81.995H508.59V76.415H519.075V81.995ZM545.762 79.205V95H540.182V79.205C540.182 70.475 547.202 63.41 556.112 63.41H567.497V68.99H555.977C550.307 68.99 545.762 73.535 545.762 79.205ZM563.177 81.995H552.692V76.415H563.177V81.995ZM585.138 95.09C578.118 95.09 572.448 89.42 572.448 82.4V63.5H578.028V82.4C578.028 86.315 581.223 89.51 585.138 89.51C589.053 89.51 592.203 86.315 592.203 82.4V63.5H597.783V82.4C597.783 89.42 592.113 95.09 585.138 95.09ZM612.997 95V68.99H602.737V63.41H628.882V68.99H618.577V95H612.997ZM646.507 95.09C639.487 95.09 633.817 89.42 633.817 82.4V63.5H639.397V82.4C639.397 86.315 642.592 89.51 646.507 89.51C650.422 89.51 653.572 86.315 653.572 82.4V63.5H659.152V82.4C659.152 89.42 653.482 95.09 646.507 95.09ZM684.401 81.32L691.691 95H685.391L682.286 89.06C680.576 86.135 678.911 81.995 677.066 81.995H673.376C671.351 81.995 669.686 83.66 669.686 85.685V95H664.106V85.685C664.106 80.555 668.246 76.415 673.376 76.415H680.891C685.796 76.415 685.796 68.99 680.891 68.99H664.106V63.41H680.891C691.061 63.41 693.761 77.495 684.401 81.32ZM721.575 95H710.1C701.415 94.91 694.395 87.89 694.395 79.205C694.395 70.475 701.46 63.41 710.19 63.41H721.575V68.99H710.19C704.565 68.99 699.975 73.535 699.975 79.205C699.975 84.83 704.565 89.42 710.19 89.42H721.575V95ZM717.255 81.995H706.77V76.415H717.255V81.995ZM754.471 63.095C763.336 63.095 770.581 70.295 770.581 79.205C770.581 88.07 763.336 95.315 754.471 95.315C745.561 95.315 738.361 88.07 738.361 79.205C738.361 70.295 745.561 63.095 754.471 63.095ZM754.471 89.735C760.231 89.735 765.001 84.92 765.001 79.16C765.001 73.4 760.231 68.675 754.471 68.675C748.711 68.675 743.941 73.4 743.941 79.16C743.941 84.92 748.711 89.735 754.471 89.735ZM781.129 79.205V95H775.549V79.205C775.549 70.475 782.569 63.41 791.479 63.41H802.864V68.99H791.344C785.674 68.99 781.129 73.535 781.129 79.205ZM798.544 81.995H788.059V76.415H798.544V81.995ZM48.6391 158H37.1641C28.4791 157.91 21.4591 150.89 21.4591 142.205C21.4591 133.475 28.5241 126.41 37.2091 126.41H48.6391V131.99H37.2091C31.5841 131.99 27.0391 136.535 27.0391 142.205C27.0391 147.83 31.5841 152.42 37.2091 152.42H48.6391V158ZM73.8886 144.32L81.1786 158H74.8786L71.7736 152.06C70.0636 149.135 68.3986 144.995 66.5536 144.995H62.8636C60.8386 144.995 59.1736 146.66 59.1736 148.685V158H53.5936V148.685C53.5936 143.555 57.7336 139.415 62.8636 139.415H70.3786C75.2836 139.415 75.2836 131.99 70.3786 131.99H53.5936V126.41H70.3786C80.5486 126.41 83.2486 140.495 73.8886 144.32ZM94.7813 158V144.86C89.8763 143.825 87.5363 137.57 86.0963 134.96L81.6413 126.455H87.9413L91.0463 132.35C92.7113 135.275 94.4213 139.46 96.2663 139.46C100.541 139.46 99.9113 140.09 104.096 132.35L107.201 126.455H113.501L109.046 134.96C107.561 137.57 105.266 143.825 100.361 144.86V158H94.7813ZM118.434 158V148.685C118.434 143.555 122.574 139.415 127.704 139.415H135.219C140.079 139.415 140.079 131.99 135.219 131.99H118.434V126.41H135.219C140.349 126.41 144.489 130.55 144.489 135.68C144.489 140.45 140.934 144.365 136.299 144.905V144.995H127.704C125.634 144.995 124.014 146.66 124.014 148.685V158H118.434ZM158.543 158V131.99H148.283V126.41H174.428V131.99H164.123V158H158.543ZM192.09 126.095C200.955 126.095 208.2 133.295 208.2 142.205C208.2 151.07 200.955 158.315 192.09 158.315C183.18 158.315 175.98 151.07 175.98 142.205C175.98 133.295 183.18 126.095 192.09 126.095ZM192.09 152.735C197.85 152.735 202.62 147.92 202.62 142.16C202.62 136.4 197.85 131.675 192.09 131.675C186.33 131.675 181.56 136.4 181.56 142.16C181.56 147.92 186.33 152.735 192.09 152.735ZM239.205 158H227.73C219.045 157.91 212.025 150.89 212.025 142.205C212.025 133.475 219.09 126.41 227.775 126.41H239.205V131.99H227.775C222.15 131.99 217.605 136.535 217.605 142.205C217.605 147.83 222.15 152.42 227.775 152.42H239.205V158ZM256.85 158.09C249.83 158.09 244.16 152.42 244.16 145.4V126.5H249.74V145.4C249.74 149.315 252.935 152.51 256.85 152.51C260.765 152.51 263.915 149.315 263.915 145.4V126.5H269.495V145.4C269.495 152.42 263.825 158.09 256.85 158.09ZM294.744 144.32L302.034 158H295.734L292.629 152.06C290.919 149.135 289.254 144.995 287.409 144.995H283.719C281.694 144.995 280.029 146.66 280.029 148.685V158H274.449V148.685C274.449 143.555 278.589 139.415 283.719 139.415H291.234C296.139 139.415 296.139 131.99 291.234 131.99H274.449V126.41H291.234C301.404 126.41 304.104 140.495 294.744 144.32ZM327.274 144.32L334.564 158H328.264L325.159 152.06C323.449 149.135 321.784 144.995 319.939 144.995H316.249C314.224 144.995 312.559 146.66 312.559 148.685V158H306.979V148.685C306.979 143.555 311.119 139.415 316.249 139.415H323.764C328.669 139.415 328.669 131.99 323.764 131.99H306.979V126.41H323.764C333.934 126.41 336.634 140.495 327.274 144.32ZM364.448 158H352.973C344.288 157.91 337.268 150.89 337.268 142.205C337.268 133.475 344.333 126.41 353.063 126.41H364.448V131.99H353.063C347.438 131.99 342.848 136.535 342.848 142.205C342.848 147.83 347.438 152.42 353.063 152.42H364.448V158ZM360.128 144.995H349.643V139.415H360.128V144.995ZM399.957 126.41V148.685C399.957 155.66 396.447 158 394.287 158C389.877 158 388.257 156.245 384.387 148.1L379.887 138.65C378.537 135.77 374.757 127.04 374.982 135.68V158H369.402V135.68C369.402 128.705 372.867 126.41 375.027 126.41C379.482 126.41 381.057 128.12 384.927 136.265L389.607 146.075C391.227 149.675 394.602 156.74 394.377 148.685V126.41H399.957ZM432.101 158H420.626C411.941 157.91 404.921 150.89 404.921 142.205C404.921 133.475 411.986 126.41 420.671 126.41H432.101V131.99H420.671C415.046 131.99 410.501 136.535 410.501 142.205C410.501 147.83 415.046 152.42 420.671 152.42H432.101V158ZM450.195 158V144.86C445.29 143.825 442.95 137.57 441.51 134.96L437.055 126.455H443.355L446.46 132.35C448.125 135.275 449.835 139.46 451.68 139.46C455.955 139.46 455.325 140.09 459.51 132.35L462.615 126.455H468.915L464.46 134.96C462.975 137.57 460.68 143.825 455.775 144.86V158H450.195ZM494.995 152.42H506.695V158H494.995C489.865 158 485.68 153.815 485.68 148.685V126.455H491.26V148.685C491.26 150.755 492.925 152.42 494.995 152.42ZM511.662 158V126.455H517.242V158H511.662ZM538.285 126.095C553.99 126.095 560.335 146.345 547.555 155.345L551.02 161.555H544.63L542.515 157.73C532.3 160.52 522.175 152.87 522.175 142.205C522.175 133.295 529.375 126.095 538.285 126.095ZM538.285 152.735C538.735 152.735 539.23 152.69 539.68 152.645L535.585 145.22H541.93L544.81 150.395C552.685 144.05 548.05 131.675 538.285 131.675C532.525 131.675 527.755 136.4 527.755 142.16C527.755 147.92 532.525 152.735 538.285 152.735ZM570.911 158.09C563.891 158.09 558.221 152.42 558.221 145.4V126.5H563.801V145.4C563.801 149.315 566.996 152.51 570.911 152.51C574.826 152.51 577.976 149.315 577.976 145.4V126.5H583.556V145.4C583.556 152.42 577.886 158.09 570.911 158.09ZM588.51 158V126.455H594.09V158H588.51ZM610.544 158H599.024V152.42H610.409C616.079 152.42 620.624 147.83 620.624 142.205C620.624 136.535 616.079 131.99 610.409 131.99H599.024V126.41H610.409C619.139 126.41 626.204 133.475 626.204 142.205C626.204 150.89 619.184 157.91 610.544 158ZM658.878 135.68V158H653.298V135.68C653.298 133.34 652.938 131.81 651.408 131.81C648.843 131.81 646.548 135.77 645.513 137.435L632.193 158H625.533L638.853 137.435C643.443 130.325 646.413 126.23 652.533 126.23C656.313 126.23 658.878 129.74 658.878 135.68ZM674.08 158V131.99H663.82V126.41H689.965V131.99H679.66V158H674.08ZM694.9 158V126.455H700.48V158H694.9ZM720.381 126.095C729.246 126.095 736.491 133.295 736.491 142.205C736.491 151.07 729.246 158.315 720.381 158.315C711.471 158.315 704.271 151.07 704.271 142.205C704.271 133.295 711.471 126.095 720.381 126.095ZM720.381 152.735C726.141 152.735 730.911 147.92 730.911 142.16C730.911 136.4 726.141 131.675 720.381 131.675C714.621 131.675 709.851 136.4 709.851 142.16C709.851 147.92 714.621 152.735 720.381 152.735ZM772.014 126.41V148.685C772.014 155.66 768.504 158 766.344 158C761.934 158 760.314 156.245 756.444 148.1L751.944 138.65C750.594 135.77 746.814 127.04 747.039 135.68V158H741.459V135.68C741.459 128.705 744.924 126.41 747.084 126.41C751.539 126.41 753.114 128.12 756.984 136.265L761.664 146.075C763.284 149.675 766.659 156.74 766.434 148.685V126.41H772.014ZM776.977 155.255C776.977 151.565 782.557 151.565 782.557 155.255C782.557 158.9 776.977 158.945 776.977 155.255Z" fill="white"/>
<path d="M17.3177 32V22.685C17.3177 17.555 21.4577 13.415 26.5877 13.415H34.1027C38.9627 13.415 38.9627 5.99 34.1027 5.99H17.3177V0.409999H34.1027C39.2327 0.409999 43.3727 4.55 43.3727 9.68C43.3727 14.45 39.8177 18.365 35.1827 18.905V18.995H26.5877C24.5177 18.995 22.8977 20.66 22.8977 22.685V32H17.3177ZM70.4047 9.68V32H64.8247V9.68C64.8247 7.34 64.4647 5.81 62.9347 5.81C60.3697 5.81 58.0747 9.77 57.0397 11.435L43.7197 32H37.0597L50.3797 11.435C54.9697 4.325 57.9397 0.229999 64.0597 0.229999C67.8397 0.229999 70.4047 3.74 70.4047 9.68ZM95.6416 18.32L102.932 32H96.6316L93.5266 26.06C91.8166 23.135 90.1516 18.995 88.3066 18.995H84.6166C82.5916 18.995 80.9266 20.66 80.9266 22.685V32H75.3466V22.685C75.3466 17.555 79.4866 13.415 84.6166 13.415H92.1316C97.0366 13.415 97.0366 5.99 92.1316 5.99H75.3466V0.409999H92.1316C102.302 0.409999 105.002 14.495 95.6416 18.32ZM115.895 32V5.99H105.635V0.409999H131.78V5.99H121.475V32H115.895ZM167.27 0.409999V22.685C167.27 29.66 163.76 32 161.6 32C157.19 32 155.57 30.245 151.7 22.1L147.2 12.65C145.85 9.77 142.07 1.04 142.295 9.68V32H136.715V9.68C136.715 2.705 140.18 0.409999 142.34 0.409999C146.795 0.409999 148.37 2.12 152.24 10.265L156.92 20.075C158.54 23.675 161.915 30.74 161.69 22.685V0.409999H167.27ZM199.414 32H187.939C179.254 31.91 172.234 24.89 172.234 16.205C172.234 7.475 179.299 0.409999 188.029 0.409999H199.414V5.99H188.029C182.404 5.99 177.814 10.535 177.814 16.205C177.814 21.83 182.404 26.42 188.029 26.42H199.414V32ZM195.094 18.995H184.609V13.415H195.094V18.995ZM224.663 18.32L231.953 32H225.653L222.548 26.06C220.838 23.135 219.173 18.995 217.328 18.995H213.638C211.613 18.995 209.948 20.66 209.948 22.685V32H204.368V22.685C204.368 17.555 208.508 13.415 213.638 13.415H221.153C226.058 13.415 226.058 5.99 221.153 5.99H204.368V0.409999H221.153C231.323 0.409999 234.023 14.495 224.663 18.32ZM276.09 9.455V23.135C276.09 23.135 275.865 26.51 276.63 26.51C277.26 26.51 277.71 24.98 278.97 21.74L287.475 0.499998H293.46L285 21.74C282.48 28.625 280.275 32.09 275.82 32.09C272.67 32.09 270.51 28.85 270.51 23.135V9.455C270.51 9.455 270.69 6.08 269.925 6.08C269.385 6.08 268.98 7.16 268.08 9.455H268.125L263.22 21.74C260.7 28.625 258.495 32.09 254.04 32.09C250.89 32.09 248.73 28.85 248.73 23.135V0.499998H254.31V23.135C254.31 23.135 254.085 26.51 254.85 26.51C255.48 26.51 255.93 24.98 257.19 21.74L261.6 10.67C264.12 3.92 266.325 0.499998 270.735 0.499998C273.885 0.499998 276.09 3.695 276.09 9.455ZM298.399 32V0.454998H303.979V32H298.399ZM319.172 32V5.99H308.912V0.409999H335.057V5.99H324.752V32H319.172ZM361.772 32V18.86H345.572V32H339.992V0.454998H345.572V13.28H361.772V0.454998H367.352V32H361.772ZM405.734 19.04H396.734V13.46H405.734C410.864 13.46 415.004 17.6 415.004 22.73C415.004 27.86 410.864 32 405.734 32H399.839C391.154 31.955 384.134 24.935 384.134 16.25C384.134 7.52 391.199 0.454998 399.929 0.454998H411.314V6.035H399.929C394.259 6.035 389.714 10.58 389.714 16.25C389.714 21.875 394.259 26.42 399.929 26.42H405.734C410.639 26.42 410.639 19.04 405.734 19.04ZM448.823 9.68V32H443.243V9.68C443.243 7.34 442.883 5.81 441.353 5.81C438.788 5.81 436.493 9.77 435.458 11.435L422.138 32H415.478L428.798 11.435C433.388 4.325 436.358 0.229999 442.478 0.229999C446.258 0.229999 448.823 3.74 448.823 9.68ZM463.08 26.42H474.78V32H463.08C457.95 32 453.765 27.815 453.765 22.685V0.454998H459.345V22.685C459.345 24.755 461.01 26.42 463.08 26.42ZM479.747 32V0.454998H485.327V32H479.747ZM499.576 26.42H511.276V32H499.576C494.446 32 490.261 27.815 490.261 22.685V0.454998H495.841V22.685C495.841 24.755 497.506 26.42 499.576 26.42ZM541.182 32H529.707C521.022 31.91 514.002 24.89 514.002 16.205C514.002 7.475 521.067 0.409999 529.797 0.409999H541.182V5.99H529.797C524.172 5.99 519.582 10.535 519.582 16.205C519.582 21.83 524.172 26.42 529.797 26.42H541.182V32ZM536.862 18.995H526.377V13.415H536.862V18.995ZM560.005 0.0949977C568.87 0.0949977 576.115 7.295 576.115 16.205C576.115 25.07 568.87 32.315 560.005 32.315C551.095 32.315 543.895 25.07 543.895 16.205C543.895 7.295 551.095 0.0949977 560.005 0.0949977ZM560.005 26.735C565.765 26.735 570.535 21.92 570.535 16.16C570.535 10.4 565.765 5.675 560.005 5.675C554.245 5.675 549.475 10.4 549.475 16.16C549.475 21.92 554.245 26.735 560.005 26.735ZM620.095 32H608.62C599.935 31.91 592.915 24.89 592.915 16.205C592.915 7.475 599.98 0.409999 608.665 0.409999H620.095V5.99H608.665C603.04 5.99 598.495 10.535 598.495 16.205C598.495 21.83 603.04 26.42 608.665 26.42H620.095V32ZM658.395 9.68V32H652.815V9.68C652.815 7.34 652.455 5.81 650.925 5.81C648.36 5.81 646.065 9.77 645.03 11.435L631.71 32H625.05L638.37 11.435C642.96 4.325 645.93 0.229999 652.05 0.229999C655.83 0.229999 658.395 3.74 658.395 9.68ZM663.337 32V22.685C663.337 17.555 667.477 13.415 672.607 13.415H680.122C684.982 13.415 684.982 5.99 680.122 5.99H663.337V0.409999H680.122C685.252 0.409999 689.392 4.55 689.392 9.68C689.392 14.45 685.837 18.365 681.202 18.905V18.995H672.607C670.537 18.995 668.917 20.66 668.917 22.685V32H663.337ZM694.329 32V0.454998H699.909V32H694.329ZM715.102 32V5.99H704.842V0.409999H730.987V5.99H720.682V32H715.102ZM760.258 9.68V32H754.678V9.68C754.678 7.34 754.318 5.81 752.788 5.81C750.223 5.81 747.928 9.77 746.893 11.435L733.573 32H726.913L740.233 11.435C744.823 4.325 747.793 0.229999 753.913 0.229999C757.693 0.229999 760.258 3.74 760.258 9.68ZM774.515 26.42H786.215V32H774.515C769.385 32 765.2 27.815 765.2 22.685V0.454998H770.78V22.685C770.78 24.755 772.445 26.42 774.515 26.42ZM34.0294 72.68V95H28.4494V72.68C28.4494 70.34 28.0894 68.81 26.5594 68.81C23.9944 68.81 21.6994 72.77 20.6644 74.435L7.34439 95H0.684387L14.0044 74.435C18.5944 67.325 21.5644 63.23 27.6844 63.23C31.4644 63.23 34.0294 66.74 34.0294 72.68ZM69.5263 63.41V85.685C69.5263 92.66 66.0163 95 63.8563 95C59.4463 95 57.8263 93.245 53.9563 85.1L49.4563 75.65C48.1063 72.77 44.3263 64.04 44.5513 72.68V95H38.9713V72.68C38.9713 65.705 42.4363 63.41 44.5963 63.41C49.0513 63.41 50.6263 65.12 54.4963 73.265L59.1763 83.075C60.7963 86.675 64.1713 93.74 63.9463 85.685V63.41H69.5263ZM86.0097 95H74.4897V89.42H85.8747C91.5447 89.42 96.0897 84.83 96.0897 79.205C96.0897 73.535 91.5447 68.99 85.8747 68.99H74.4897V63.41H85.8747C94.6047 63.41 101.67 70.475 101.67 79.205C101.67 87.89 94.6497 94.91 86.0097 95ZM145.636 95H134.161C125.476 94.91 118.456 87.89 118.456 79.205C118.456 70.475 125.521 63.41 134.251 63.41H145.636V68.99H134.251C128.626 68.99 124.036 73.535 124.036 79.205C124.036 84.83 128.626 89.42 134.251 89.42H145.636V95ZM141.316 81.995H130.831V76.415H141.316V81.995ZM159.456 79.25C157.296 76.865 155.991 73.67 155.046 71.96L150.591 63.455H156.891L159.996 69.35C161.661 72.275 163.371 76.46 165.216 76.46C169.671 76.46 168.861 77 173.046 69.35L176.151 63.455H182.451L177.996 71.96C177.051 73.67 175.746 76.865 173.586 79.25C175.746 81.59 177.051 84.785 177.996 86.495L182.451 95H176.151L173.046 89.105C171.381 86.18 169.671 82.04 167.826 82.04C163.371 82.04 164.181 81.5 159.996 89.105L156.891 95H150.591L155.046 86.495C155.991 84.785 157.296 81.59 159.456 79.25ZM187.383 95V85.685C187.383 80.555 191.523 76.415 196.653 76.415H204.168C209.028 76.415 209.028 68.99 204.168 68.99H187.383V63.41H204.168C209.298 63.41 213.438 67.55 213.438 72.68C213.438 77.45 209.883 81.365 205.248 81.905V81.995H196.653C194.583 81.995 192.963 83.66 192.963 85.685V95H187.383ZM243.314 95H231.839C223.154 94.91 216.134 87.89 216.134 79.205C216.134 70.475 223.199 63.41 231.929 63.41H243.314V68.99H231.929C226.304 68.99 221.714 73.535 221.714 79.205C221.714 84.83 226.304 89.42 231.929 89.42H243.314V95ZM238.994 81.995H228.509V76.415H238.994V81.995ZM268.564 81.32L275.854 95H269.554L266.449 89.06C264.739 86.135 263.074 81.995 261.229 81.995H257.539C255.514 81.995 253.849 83.66 253.849 85.685V95H248.269V85.685C248.269 80.555 252.409 76.415 257.539 76.415H265.054C269.959 76.415 269.959 68.99 265.054 68.99H248.269V63.41H265.054C275.224 63.41 277.924 77.495 268.564 81.32ZM280.799 95V63.455H286.379V95H280.799ZM318.492 95H307.017C298.332 94.91 291.312 87.89 291.312 79.205C291.312 70.475 298.377 63.41 307.107 63.41H318.492V68.99H307.107C301.482 68.99 296.892 73.535 296.892 79.205C296.892 84.83 301.482 89.42 307.107 89.42H318.492V95ZM314.172 81.995H303.687V76.415H314.172V81.995ZM354.002 63.41V85.685C354.002 92.66 350.492 95 348.332 95C343.922 95 342.302 93.245 338.432 85.1L333.932 75.65C332.582 72.77 328.802 64.04 329.027 72.68V95H323.447V72.68C323.447 65.705 326.912 63.41 329.072 63.41C333.527 63.41 335.102 65.12 338.972 73.265L343.652 83.075C345.272 86.675 348.647 93.74 348.422 85.685V63.41H354.002ZM386.145 95H374.67C365.985 94.91 358.965 87.89 358.965 79.205C358.965 70.475 366.03 63.41 374.715 63.41H386.145V68.99H374.715C369.09 68.99 364.545 73.535 364.545 79.205C364.545 84.83 369.09 89.42 374.715 89.42H386.145V95ZM416.039 95H404.564C395.879 94.91 388.859 87.89 388.859 79.205C388.859 70.475 395.924 63.41 404.654 63.41H416.039V68.99H404.654C399.029 68.99 394.439 73.535 394.439 79.205C394.439 84.83 399.029 89.42 404.654 89.42H416.039V95ZM411.719 81.995H401.234V76.415H411.719V81.995ZM443.085 95V68.99H432.825V63.41H458.97V68.99H448.665V95H443.085ZM485.685 95V81.86H469.485V95H463.905V63.455H469.485V76.28H485.685V63.455H491.265V95H485.685ZM523.395 95H511.92C503.235 94.91 496.215 87.89 496.215 79.205C496.215 70.475 503.28 63.41 512.01 63.41H523.395V68.99H512.01C506.385 68.99 501.795 73.535 501.795 79.205C501.795 84.83 506.385 89.42 512.01 89.42H523.395V95ZM519.075 81.995H508.59V76.415H519.075V81.995ZM545.762 79.205V95H540.182V79.205C540.182 70.475 547.202 63.41 556.112 63.41H567.497V68.99H555.977C550.307 68.99 545.762 73.535 545.762 79.205ZM563.177 81.995H552.692V76.415H563.177V81.995ZM585.138 95.09C578.118 95.09 572.448 89.42 572.448 82.4V63.5H578.028V82.4C578.028 86.315 581.223 89.51 585.138 89.51C589.053 89.51 592.203 86.315 592.203 82.4V63.5H597.783V82.4C597.783 89.42 592.113 95.09 585.138 95.09ZM612.997 95V68.99H602.737V63.41H628.882V68.99H618.577V95H612.997ZM646.507 95.09C639.487 95.09 633.817 89.42 633.817 82.4V63.5H639.397V82.4C639.397 86.315 642.592 89.51 646.507 89.51C650.422 89.51 653.572 86.315 653.572 82.4V63.5H659.152V82.4C659.152 89.42 653.482 95.09 646.507 95.09ZM684.401 81.32L691.691 95H685.391L682.286 89.06C680.576 86.135 678.911 81.995 677.066 81.995H673.376C671.351 81.995 669.686 83.66 669.686 85.685V95H664.106V85.685C664.106 80.555 668.246 76.415 673.376 76.415H680.891C685.796 76.415 685.796 68.99 680.891 68.99H664.106V63.41H680.891C691.061 63.41 693.761 77.495 684.401 81.32ZM721.575 95H710.1C701.415 94.91 694.395 87.89 694.395 79.205C694.395 70.475 701.46 63.41 710.19 63.41H721.575V68.99H710.19C704.565 68.99 699.975 73.535 699.975 79.205C699.975 84.83 704.565 89.42 710.19 89.42H721.575V95ZM717.255 81.995H706.77V76.415H717.255V81.995ZM754.471 63.095C763.336 63.095 770.581 70.295 770.581 79.205C770.581 88.07 763.336 95.315 754.471 95.315C745.561 95.315 738.361 88.07 738.361 79.205C738.361 70.295 745.561 63.095 754.471 63.095ZM754.471 89.735C760.231 89.735 765.001 84.92 765.001 79.16C765.001 73.4 760.231 68.675 754.471 68.675C748.711 68.675 743.941 73.4 743.941 79.16C743.941 84.92 748.711 89.735 754.471 89.735ZM781.129 79.205V95H775.549V79.205C775.549 70.475 782.569 63.41 791.479 63.41H802.864V68.99H791.344C785.674 68.99 781.129 73.535 781.129 79.205ZM798.544 81.995H788.059V76.415H798.544V81.995ZM48.6391 158H37.1641C28.4791 157.91 21.4591 150.89 21.4591 142.205C21.4591 133.475 28.5241 126.41 37.2091 126.41H48.6391V131.99H37.2091C31.5841 131.99 27.0391 136.535 27.0391 142.205C27.0391 147.83 31.5841 152.42 37.2091 152.42H48.6391V158ZM73.8886 144.32L81.1786 158H74.8786L71.7736 152.06C70.0636 149.135 68.3986 144.995 66.5536 144.995H62.8636C60.8386 144.995 59.1736 146.66 59.1736 148.685V158H53.5936V148.685C53.5936 143.555 57.7336 139.415 62.8636 139.415H70.3786C75.2836 139.415 75.2836 131.99 70.3786 131.99H53.5936V126.41H70.3786C80.5486 126.41 83.2486 140.495 73.8886 144.32ZM94.7813 158V144.86C89.8763 143.825 87.5363 137.57 86.0963 134.96L81.6413 126.455H87.9413L91.0463 132.35C92.7113 135.275 94.4213 139.46 96.2663 139.46C100.541 139.46 99.9113 140.09 104.096 132.35L107.201 126.455H113.501L109.046 134.96C107.561 137.57 105.266 143.825 100.361 144.86V158H94.7813ZM118.434 158V148.685C118.434 143.555 122.574 139.415 127.704 139.415H135.219C140.079 139.415 140.079 131.99 135.219 131.99H118.434V126.41H135.219C140.349 126.41 144.489 130.55 144.489 135.68C144.489 140.45 140.934 144.365 136.299 144.905V144.995H127.704C125.634 144.995 124.014 146.66 124.014 148.685V158H118.434ZM158.543 158V131.99H148.283V126.41H174.428V131.99H164.123V158H158.543ZM192.09 126.095C200.955 126.095 208.2 133.295 208.2 142.205C208.2 151.07 200.955 158.315 192.09 158.315C183.18 158.315 175.98 151.07 175.98 142.205C175.98 133.295 183.18 126.095 192.09 126.095ZM192.09 152.735C197.85 152.735 202.62 147.92 202.62 142.16C202.62 136.4 197.85 131.675 192.09 131.675C186.33 131.675 181.56 136.4 181.56 142.16C181.56 147.92 186.33 152.735 192.09 152.735ZM239.205 158H227.73C219.045 157.91 212.025 150.89 212.025 142.205C212.025 133.475 219.09 126.41 227.775 126.41H239.205V131.99H227.775C222.15 131.99 217.605 136.535 217.605 142.205C217.605 147.83 222.15 152.42 227.775 152.42H239.205V158ZM256.85 158.09C249.83 158.09 244.16 152.42 244.16 145.4V126.5H249.74V145.4C249.74 149.315 252.935 152.51 256.85 152.51C260.765 152.51 263.915 149.315 263.915 145.4V126.5H269.495V145.4C269.495 152.42 263.825 158.09 256.85 158.09ZM294.744 144.32L302.034 158H295.734L292.629 152.06C290.919 149.135 289.254 144.995 287.409 144.995H283.719C281.694 144.995 280.029 146.66 280.029 148.685V158H274.449V148.685C274.449 143.555 278.589 139.415 283.719 139.415H291.234C296.139 139.415 296.139 131.99 291.234 131.99H274.449V126.41H291.234C301.404 126.41 304.104 140.495 294.744 144.32ZM327.274 144.32L334.564 158H328.264L325.159 152.06C323.449 149.135 321.784 144.995 319.939 144.995H316.249C314.224 144.995 312.559 146.66 312.559 148.685V158H306.979V148.685C306.979 143.555 311.119 139.415 316.249 139.415H323.764C328.669 139.415 328.669 131.99 323.764 131.99H306.979V126.41H323.764C333.934 126.41 336.634 140.495 327.274 144.32ZM364.448 158H352.973C344.288 157.91 337.268 150.89 337.268 142.205C337.268 133.475 344.333 126.41 353.063 126.41H364.448V131.99H353.063C347.438 131.99 342.848 136.535 342.848 142.205C342.848 147.83 347.438 152.42 353.063 152.42H364.448V158ZM360.128 144.995H349.643V139.415H360.128V144.995ZM399.957 126.41V148.685C399.957 155.66 396.447 158 394.287 158C389.877 158 388.257 156.245 384.387 148.1L379.887 138.65C378.537 135.77 374.757 127.04 374.982 135.68V158H369.402V135.68C369.402 128.705 372.867 126.41 375.027 126.41C379.482 126.41 381.057 128.12 384.927 136.265L389.607 146.075C391.227 149.675 394.602 156.74 394.377 148.685V126.41H399.957ZM432.101 158H420.626C411.941 157.91 404.921 150.89 404.921 142.205C404.921 133.475 411.986 126.41 420.671 126.41H432.101V131.99H420.671C415.046 131.99 410.501 136.535 410.501 142.205C410.501 147.83 415.046 152.42 420.671 152.42H432.101V158ZM450.195 158V144.86C445.29 143.825 442.95 137.57 441.51 134.96L437.055 126.455H443.355L446.46 132.35C448.125 135.275 449.835 139.46 451.68 139.46C455.955 139.46 455.325 140.09 459.51 132.35L462.615 126.455H468.915L464.46 134.96C462.975 137.57 460.68 143.825 455.775 144.86V158H450.195ZM494.995 152.42H506.695V158H494.995C489.865 158 485.68 153.815 485.68 148.685V126.455H491.26V148.685C491.26 150.755 492.925 152.42 494.995 152.42ZM511.662 158V126.455H517.242V158H511.662ZM538.285 126.095C553.99 126.095 560.335 146.345 547.555 155.345L551.02 161.555H544.63L542.515 157.73C532.3 160.52 522.175 152.87 522.175 142.205C522.175 133.295 529.375 126.095 538.285 126.095ZM538.285 152.735C538.735 152.735 539.23 152.69 539.68 152.645L535.585 145.22H541.93L544.81 150.395C552.685 144.05 548.05 131.675 538.285 131.675C532.525 131.675 527.755 136.4 527.755 142.16C527.755 147.92 532.525 152.735 538.285 152.735ZM570.911 158.09C563.891 158.09 558.221 152.42 558.221 145.4V126.5H563.801V145.4C563.801 149.315 566.996 152.51 570.911 152.51C574.826 152.51 577.976 149.315 577.976 145.4V126.5H583.556V145.4C583.556 152.42 577.886 158.09 570.911 158.09ZM588.51 158V126.455H594.09V158H588.51ZM610.544 158H599.024V152.42H610.409C616.079 152.42 620.624 147.83 620.624 142.205C620.624 136.535 616.079 131.99 610.409 131.99H599.024V126.41H610.409C619.139 126.41 626.204 133.475 626.204 142.205C626.204 150.89 619.184 157.91 610.544 158ZM658.878 135.68V158H653.298V135.68C653.298 133.34 652.938 131.81 651.408 131.81C648.843 131.81 646.548 135.77 645.513 137.435L632.193 158H625.533L638.853 137.435C643.443 130.325 646.413 126.23 652.533 126.23C656.313 126.23 658.878 129.74 658.878 135.68ZM674.08 158V131.99H663.82V126.41H689.965V131.99H679.66V158H674.08ZM694.9 158V126.455H700.48V158H694.9ZM720.381 126.095C729.246 126.095 736.491 133.295 736.491 142.205C736.491 151.07 729.246 158.315 720.381 158.315C711.471 158.315 704.271 151.07 704.271 142.205C704.271 133.295 711.471 126.095 720.381 126.095ZM720.381 152.735C726.141 152.735 730.911 147.92 730.911 142.16C730.911 136.4 726.141 131.675 720.381 131.675C714.621 131.675 709.851 136.4 709.851 142.16C709.851 147.92 714.621 152.735 720.381 152.735ZM772.014 126.41V148.685C772.014 155.66 768.504 158 766.344 158C761.934 158 760.314 156.245 756.444 148.1L751.944 138.65C750.594 135.77 746.814 127.04 747.039 135.68V158H741.459V135.68C741.459 128.705 744.924 126.41 747.084 126.41C751.539 126.41 753.114 128.12 756.984 136.265L761.664 146.075C763.284 149.675 766.659 156.74 766.434 148.685V126.41H772.014ZM776.977 155.255C776.977 151.565 782.557 151.565 782.557 155.255C782.557 158.9 776.977 158.945 776.977 155.255Z" fill="url(#paint0_linear_270527_23)"/>
<path d="M17.3177 32V22.685C17.3177 17.555 21.4577 13.415 26.5877 13.415H34.1027C38.9627 13.415 38.9627 5.99 34.1027 5.99H17.3177V0.409999H34.1027C39.2327 0.409999 43.3727 4.55 43.3727 9.68C43.3727 14.45 39.8177 18.365 35.1827 18.905V18.995H26.5877C24.5177 18.995 22.8977 20.66 22.8977 22.685V32H17.3177ZM70.4047 9.68V32H64.8247V9.68C64.8247 7.34 64.4647 5.81 62.9347 5.81C60.3697 5.81 58.0747 9.77 57.0397 11.435L43.7197 32H37.0597L50.3797 11.435C54.9697 4.325 57.9397 0.229999 64.0597 0.229999C67.8397 0.229999 70.4047 3.74 70.4047 9.68ZM95.6416 18.32L102.932 32H96.6316L93.5266 26.06C91.8166 23.135 90.1516 18.995 88.3066 18.995H84.6166C82.5916 18.995 80.9266 20.66 80.9266 22.685V32H75.3466V22.685C75.3466 17.555 79.4866 13.415 84.6166 13.415H92.1316C97.0366 13.415 97.0366 5.99 92.1316 5.99H75.3466V0.409999H92.1316C102.302 0.409999 105.002 14.495 95.6416 18.32ZM115.895 32V5.99H105.635V0.409999H131.78V5.99H121.475V32H115.895ZM167.27 0.409999V22.685C167.27 29.66 163.76 32 161.6 32C157.19 32 155.57 30.245 151.7 22.1L147.2 12.65C145.85 9.77 142.07 1.04 142.295 9.68V32H136.715V9.68C136.715 2.705 140.18 0.409999 142.34 0.409999C146.795 0.409999 148.37 2.12 152.24 10.265L156.92 20.075C158.54 23.675 161.915 30.74 161.69 22.685V0.409999H167.27ZM199.414 32H187.939C179.254 31.91 172.234 24.89 172.234 16.205C172.234 7.475 179.299 0.409999 188.029 0.409999H199.414V5.99H188.029C182.404 5.99 177.814 10.535 177.814 16.205C177.814 21.83 182.404 26.42 188.029 26.42H199.414V32ZM195.094 18.995H184.609V13.415H195.094V18.995ZM224.663 18.32L231.953 32H225.653L222.548 26.06C220.838 23.135 219.173 18.995 217.328 18.995H213.638C211.613 18.995 209.948 20.66 209.948 22.685V32H204.368V22.685C204.368 17.555 208.508 13.415 213.638 13.415H221.153C226.058 13.415 226.058 5.99 221.153 5.99H204.368V0.409999H221.153C231.323 0.409999 234.023 14.495 224.663 18.32ZM276.09 9.455V23.135C276.09 23.135 275.865 26.51 276.63 26.51C277.26 26.51 277.71 24.98 278.97 21.74L287.475 0.499998H293.46L285 21.74C282.48 28.625 280.275 32.09 275.82 32.09C272.67 32.09 270.51 28.85 270.51 23.135V9.455C270.51 9.455 270.69 6.08 269.925 6.08C269.385 6.08 268.98 7.16 268.08 9.455H268.125L263.22 21.74C260.7 28.625 258.495 32.09 254.04 32.09C250.89 32.09 248.73 28.85 248.73 23.135V0.499998H254.31V23.135C254.31 23.135 254.085 26.51 254.85 26.51C255.48 26.51 255.93 24.98 257.19 21.74L261.6 10.67C264.12 3.92 266.325 0.499998 270.735 0.499998C273.885 0.499998 276.09 3.695 276.09 9.455ZM298.399 32V0.454998H303.979V32H298.399ZM319.172 32V5.99H308.912V0.409999H335.057V5.99H324.752V32H319.172ZM361.772 32V18.86H345.572V32H339.992V0.454998H345.572V13.28H361.772V0.454998H367.352V32H361.772ZM405.734 19.04H396.734V13.46H405.734C410.864 13.46 415.004 17.6 415.004 22.73C415.004 27.86 410.864 32 405.734 32H399.839C391.154 31.955 384.134 24.935 384.134 16.25C384.134 7.52 391.199 0.454998 399.929 0.454998H411.314V6.035H399.929C394.259 6.035 389.714 10.58 389.714 16.25C389.714 21.875 394.259 26.42 399.929 26.42H405.734C410.639 26.42 410.639 19.04 405.734 19.04ZM448.823 9.68V32H443.243V9.68C443.243 7.34 442.883 5.81 441.353 5.81C438.788 5.81 436.493 9.77 435.458 11.435L422.138 32H415.478L428.798 11.435C433.388 4.325 436.358 0.229999 442.478 0.229999C446.258 0.229999 448.823 3.74 448.823 9.68ZM463.08 26.42H474.78V32H463.08C457.95 32 453.765 27.815 453.765 22.685V0.454998H459.345V22.685C459.345 24.755 461.01 26.42 463.08 26.42ZM479.747 32V0.454998H485.327V32H479.747ZM499.576 26.42H511.276V32H499.576C494.446 32 490.261 27.815 490.261 22.685V0.454998H495.841V22.685C495.841 24.755 497.506 26.42 499.576 26.42ZM541.182 32H529.707C521.022 31.91 514.002 24.89 514.002 16.205C514.002 7.475 521.067 0.409999 529.797 0.409999H541.182V5.99H529.797C524.172 5.99 519.582 10.535 519.582 16.205C519.582 21.83 524.172 26.42 529.797 26.42H541.182V32ZM536.862 18.995H526.377V13.415H536.862V18.995ZM560.005 0.0949977C568.87 0.0949977 576.115 7.295 576.115 16.205C576.115 25.07 568.87 32.315 560.005 32.315C551.095 32.315 543.895 25.07 543.895 16.205C543.895 7.295 551.095 0.0949977 560.005 0.0949977ZM560.005 26.735C565.765 26.735 570.535 21.92 570.535 16.16C570.535 10.4 565.765 5.675 560.005 5.675C554.245 5.675 549.475 10.4 549.475 16.16C549.475 21.92 554.245 26.735 560.005 26.735ZM620.095 32H608.62C599.935 31.91 592.915 24.89 592.915 16.205C592.915 7.475 599.98 0.409999 608.665 0.409999H620.095V5.99H608.665C603.04 5.99 598.495 10.535 598.495 16.205C598.495 21.83 603.04 26.42 608.665 26.42H620.095V32ZM658.395 9.68V32H652.815V9.68C652.815 7.34 652.455 5.81 650.925 5.81C648.36 5.81 646.065 9.77 645.03 11.435L631.71 32H625.05L638.37 11.435C642.96 4.325 645.93 0.229999 652.05 0.229999C655.83 0.229999 658.395 3.74 658.395 9.68ZM663.337 32V22.685C663.337 17.555 667.477 13.415 672.607 13.415H680.122C684.982 13.415 684.982 5.99 680.122 5.99H663.337V0.409999H680.122C685.252 0.409999 689.392 4.55 689.392 9.68C689.392 14.45 685.837 18.365 681.202 18.905V18.995H672.607C670.537 18.995 668.917 20.66 668.917 22.685V32H663.337ZM694.329 32V0.454998H699.909V32H694.329ZM715.102 32V5.99H704.842V0.409999H730.987V5.99H720.682V32H715.102ZM760.258 9.68V32H754.678V9.68C754.678 7.34 754.318 5.81 752.788 5.81C750.223 5.81 747.928 9.77 746.893 11.435L733.573 32H726.913L740.233 11.435C744.823 4.325 747.793 0.229999 753.913 0.229999C757.693 0.229999 760.258 3.74 760.258 9.68ZM774.515 26.42H786.215V32H774.515C769.385 32 765.2 27.815 765.2 22.685V0.454998H770.78V22.685C770.78 24.755 772.445 26.42 774.515 26.42ZM34.0294 72.68V95H28.4494V72.68C28.4494 70.34 28.0894 68.81 26.5594 68.81C23.9944 68.81 21.6994 72.77 20.6644 74.435L7.34439 95H0.684387L14.0044 74.435C18.5944 67.325 21.5644 63.23 27.6844 63.23C31.4644 63.23 34.0294 66.74 34.0294 72.68ZM69.5263 63.41V85.685C69.5263 92.66 66.0163 95 63.8563 95C59.4463 95 57.8263 93.245 53.9563 85.1L49.4563 75.65C48.1063 72.77 44.3263 64.04 44.5513 72.68V95H38.9713V72.68C38.9713 65.705 42.4363 63.41 44.5963 63.41C49.0513 63.41 50.6263 65.12 54.4963 73.265L59.1763 83.075C60.7963 86.675 64.1713 93.74 63.9463 85.685V63.41H69.5263ZM86.0097 95H74.4897V89.42H85.8747C91.5447 89.42 96.0897 84.83 96.0897 79.205C96.0897 73.535 91.5447 68.99 85.8747 68.99H74.4897V63.41H85.8747C94.6047 63.41 101.67 70.475 101.67 79.205C101.67 87.89 94.6497 94.91 86.0097 95ZM145.636 95H134.161C125.476 94.91 118.456 87.89 118.456 79.205C118.456 70.475 125.521 63.41 134.251 63.41H145.636V68.99H134.251C128.626 68.99 124.036 73.535 124.036 79.205C124.036 84.83 128.626 89.42 134.251 89.42H145.636V95ZM141.316 81.995H130.831V76.415H141.316V81.995ZM159.456 79.25C157.296 76.865 155.991 73.67 155.046 71.96L150.591 63.455H156.891L159.996 69.35C161.661 72.275 163.371 76.46 165.216 76.46C169.671 76.46 168.861 77 173.046 69.35L176.151 63.455H182.451L177.996 71.96C177.051 73.67 175.746 76.865 173.586 79.25C175.746 81.59 177.051 84.785 177.996 86.495L182.451 95H176.151L173.046 89.105C171.381 86.18 169.671 82.04 167.826 82.04C163.371 82.04 164.181 81.5 159.996 89.105L156.891 95H150.591L155.046 86.495C155.991 84.785 157.296 81.59 159.456 79.25ZM187.383 95V85.685C187.383 80.555 191.523 76.415 196.653 76.415H204.168C209.028 76.415 209.028 68.99 204.168 68.99H187.383V63.41H204.168C209.298 63.41 213.438 67.55 213.438 72.68C213.438 77.45 209.883 81.365 205.248 81.905V81.995H196.653C194.583 81.995 192.963 83.66 192.963 85.685V95H187.383ZM243.314 95H231.839C223.154 94.91 216.134 87.89 216.134 79.205C216.134 70.475 223.199 63.41 231.929 63.41H243.314V68.99H231.929C226.304 68.99 221.714 73.535 221.714 79.205C221.714 84.83 226.304 89.42 231.929 89.42H243.314V95ZM238.994 81.995H228.509V76.415H238.994V81.995ZM268.564 81.32L275.854 95H269.554L266.449 89.06C264.739 86.135 263.074 81.995 261.229 81.995H257.539C255.514 81.995 253.849 83.66 253.849 85.685V95H248.269V85.685C248.269 80.555 252.409 76.415 257.539 76.415H265.054C269.959 76.415 269.959 68.99 265.054 68.99H248.269V63.41H265.054C275.224 63.41 277.924 77.495 268.564 81.32ZM280.799 95V63.455H286.379V95H280.799ZM318.492 95H307.017C298.332 94.91 291.312 87.89 291.312 79.205C291.312 70.475 298.377 63.41 307.107 63.41H318.492V68.99H307.107C301.482 68.99 296.892 73.535 296.892 79.205C296.892 84.83 301.482 89.42 307.107 89.42H318.492V95ZM314.172 81.995H303.687V76.415H314.172V81.995ZM354.002 63.41V85.685C354.002 92.66 350.492 95 348.332 95C343.922 95 342.302 93.245 338.432 85.1L333.932 75.65C332.582 72.77 328.802 64.04 329.027 72.68V95H323.447V72.68C323.447 65.705 326.912 63.41 329.072 63.41C333.527 63.41 335.102 65.12 338.972 73.265L343.652 83.075C345.272 86.675 348.647 93.74 348.422 85.685V63.41H354.002ZM386.145 95H374.67C365.985 94.91 358.965 87.89 358.965 79.205C358.965 70.475 366.03 63.41 374.715 63.41H386.145V68.99H374.715C369.09 68.99 364.545 73.535 364.545 79.205C364.545 84.83 369.09 89.42 374.715 89.42H386.145V95ZM416.039 95H404.564C395.879 94.91 388.859 87.89 388.859 79.205C388.859 70.475 395.924 63.41 404.654 63.41H416.039V68.99H404.654C399.029 68.99 394.439 73.535 394.439 79.205C394.439 84.83 399.029 89.42 404.654 89.42H416.039V95ZM411.719 81.995H401.234V76.415H411.719V81.995ZM443.085 95V68.99H432.825V63.41H458.97V68.99H448.665V95H443.085ZM485.685 95V81.86H469.485V95H463.905V63.455H469.485V76.28H485.685V63.455H491.265V95H485.685ZM523.395 95H511.92C503.235 94.91 496.215 87.89 496.215 79.205C496.215 70.475 503.28 63.41 512.01 63.41H523.395V68.99H512.01C506.385 68.99 501.795 73.535 501.795 79.205C501.795 84.83 506.385 89.42 512.01 89.42H523.395V95ZM519.075 81.995H508.59V76.415H519.075V81.995ZM545.762 79.205V95H540.182V79.205C540.182 70.475 547.202 63.41 556.112 63.41H567.497V68.99H555.977C550.307 68.99 545.762 73.535 545.762 79.205ZM563.177 81.995H552.692V76.415H563.177V81.995ZM585.138 95.09C578.118 95.09 572.448 89.42 572.448 82.4V63.5H578.028V82.4C578.028 86.315 581.223 89.51 585.138 89.51C589.053 89.51 592.203 86.315 592.203 82.4V63.5H597.783V82.4C597.783 89.42 592.113 95.09 585.138 95.09ZM612.997 95V68.99H602.737V63.41H628.882V68.99H618.577V95H612.997ZM646.507 95.09C639.487 95.09 633.817 89.42 633.817 82.4V63.5H639.397V82.4C639.397 86.315 642.592 89.51 646.507 89.51C650.422 89.51 653.572 86.315 653.572 82.4V63.5H659.152V82.4C659.152 89.42 653.482 95.09 646.507 95.09ZM684.401 81.32L691.691 95H685.391L682.286 89.06C680.576 86.135 678.911 81.995 677.066 81.995H673.376C671.351 81.995 669.686 83.66 669.686 85.685V95H664.106V85.685C664.106 80.555 668.246 76.415 673.376 76.415H680.891C685.796 76.415 685.796 68.99 680.891 68.99H664.106V63.41H680.891C691.061 63.41 693.761 77.495 684.401 81.32ZM721.575 95H710.1C701.415 94.91 694.395 87.89 694.395 79.205C694.395 70.475 701.46 63.41 710.19 63.41H721.575V68.99H710.19C704.565 68.99 699.975 73.535 699.975 79.205C699.975 84.83 704.565 89.42 710.19 89.42H721.575V95ZM717.255 81.995H706.77V76.415H717.255V81.995ZM754.471 63.095C763.336 63.095 770.581 70.295 770.581 79.205C770.581 88.07 763.336 95.315 754.471 95.315C745.561 95.315 738.361 88.07 738.361 79.205C738.361 70.295 745.561 63.095 754.471 63.095ZM754.471 89.735C760.231 89.735 765.001 84.92 765.001 79.16C765.001 73.4 760.231 68.675 754.471 68.675C748.711 68.675 743.941 73.4 743.941 79.16C743.941 84.92 748.711 89.735 754.471 89.735ZM781.129 79.205V95H775.549V79.205C775.549 70.475 782.569 63.41 791.479 63.41H802.864V68.99H791.344C785.674 68.99 781.129 73.535 781.129 79.205ZM798.544 81.995H788.059V76.415H798.544V81.995ZM48.6391 158H37.1641C28.4791 157.91 21.4591 150.89 21.4591 142.205C21.4591 133.475 28.5241 126.41 37.2091 126.41H48.6391V131.99H37.2091C31.5841 131.99 27.0391 136.535 27.0391 142.205C27.0391 147.83 31.5841 152.42 37.2091 152.42H48.6391V158ZM73.8886 144.32L81.1786 158H74.8786L71.7736 152.06C70.0636 149.135 68.3986 144.995 66.5536 144.995H62.8636C60.8386 144.995 59.1736 146.66 59.1736 148.685V158H53.5936V148.685C53.5936 143.555 57.7336 139.415 62.8636 139.415H70.3786C75.2836 139.415 75.2836 131.99 70.3786 131.99H53.5936V126.41H70.3786C80.5486 126.41 83.2486 140.495 73.8886 144.32ZM94.7813 158V144.86C89.8763 143.825 87.5363 137.57 86.0963 134.96L81.6413 126.455H87.9413L91.0463 132.35C92.7113 135.275 94.4213 139.46 96.2663 139.46C100.541 139.46 99.9113 140.09 104.096 132.35L107.201 126.455H113.501L109.046 134.96C107.561 137.57 105.266 143.825 100.361 144.86V158H94.7813ZM118.434 158V148.685C118.434 143.555 122.574 139.415 127.704 139.415H135.219C140.079 139.415 140.079 131.99 135.219 131.99H118.434V126.41H135.219C140.349 126.41 144.489 130.55 144.489 135.68C144.489 140.45 140.934 144.365 136.299 144.905V144.995H127.704C125.634 144.995 124.014 146.66 124.014 148.685V158H118.434ZM158.543 158V131.99H148.283V126.41H174.428V131.99H164.123V158H158.543ZM192.09 126.095C200.955 126.095 208.2 133.295 208.2 142.205C208.2 151.07 200.955 158.315 192.09 158.315C183.18 158.315 175.98 151.07 175.98 142.205C175.98 133.295 183.18 126.095 192.09 126.095ZM192.09 152.735C197.85 152.735 202.62 147.92 202.62 142.16C202.62 136.4 197.85 131.675 192.09 131.675C186.33 131.675 181.56 136.4 181.56 142.16C181.56 147.92 186.33 152.735 192.09 152.735ZM239.205 158H227.73C219.045 157.91 212.025 150.89 212.025 142.205C212.025 133.475 219.09 126.41 227.775 126.41H239.205V131.99H227.775C222.15 131.99 217.605 136.535 217.605 142.205C217.605 147.83 222.15 152.42 227.775 152.42H239.205V158ZM256.85 158.09C249.83 158.09 244.16 152.42 244.16 145.4V126.5H249.74V145.4C249.74 149.315 252.935 152.51 256.85 152.51C260.765 152.51 263.915 149.315 263.915 145.4V126.5H269.495V145.4C269.495 152.42 263.825 158.09 256.85 158.09ZM294.744 144.32L302.034 158H295.734L292.629 152.06C290.919 149.135 289.254 144.995 287.409 144.995H283.719C281.694 144.995 280.029 146.66 280.029 148.685V158H274.449V148.685C274.449 143.555 278.589 139.415 283.719 139.415H291.234C296.139 139.415 296.139 131.99 291.234 131.99H274.449V126.41H291.234C301.404 126.41 304.104 140.495 294.744 144.32ZM327.274 144.32L334.564 158H328.264L325.159 152.06C323.449 149.135 321.784 144.995 319.939 144.995H316.249C314.224 144.995 312.559 146.66 312.559 148.685V158H306.979V148.685C306.979 143.555 311.119 139.415 316.249 139.415H323.764C328.669 139.415 328.669 131.99 323.764 131.99H306.979V126.41H323.764C333.934 126.41 336.634 140.495 327.274 144.32ZM364.448 158H352.973C344.288 157.91 337.268 150.89 337.268 142.205C337.268 133.475 344.333 126.41 353.063 126.41H364.448V131.99H353.063C347.438 131.99 342.848 136.535 342.848 142.205C342.848 147.83 347.438 152.42 353.063 152.42H364.448V158ZM360.128 144.995H349.643V139.415H360.128V144.995ZM399.957 126.41V148.685C399.957 155.66 396.447 158 394.287 158C389.877 158 388.257 156.245 384.387 148.1L379.887 138.65C378.537 135.77 374.757 127.04 374.982 135.68V158H369.402V135.68C369.402 128.705 372.867 126.41 375.027 126.41C379.482 126.41 381.057 128.12 384.927 136.265L389.607 146.075C391.227 149.675 394.602 156.74 394.377 148.685V126.41H399.957ZM432.101 158H420.626C411.941 157.91 404.921 150.89 404.921 142.205C404.921 133.475 411.986 126.41 420.671 126.41H432.101V131.99H420.671C415.046 131.99 410.501 136.535 410.501 142.205C410.501 147.83 415.046 152.42 420.671 152.42H432.101V158ZM450.195 158V144.86C445.29 143.825 442.95 137.57 441.51 134.96L437.055 126.455H443.355L446.46 132.35C448.125 135.275 449.835 139.46 451.68 139.46C455.955 139.46 455.325 140.09 459.51 132.35L462.615 126.455H468.915L464.46 134.96C462.975 137.57 460.68 143.825 455.775 144.86V158H450.195ZM494.995 152.42H506.695V158H494.995C489.865 158 485.68 153.815 485.68 148.685V126.455H491.26V148.685C491.26 150.755 492.925 152.42 494.995 152.42ZM511.662 158V126.455H517.242V158H511.662ZM538.285 126.095C553.99 126.095 560.335 146.345 547.555 155.345L551.02 161.555H544.63L542.515 157.73C532.3 160.52 522.175 152.87 522.175 142.205C522.175 133.295 529.375 126.095 538.285 126.095ZM538.285 152.735C538.735 152.735 539.23 152.69 539.68 152.645L535.585 145.22H541.93L544.81 150.395C552.685 144.05 548.05 131.675 538.285 131.675C532.525 131.675 527.755 136.4 527.755 142.16C527.755 147.92 532.525 152.735 538.285 152.735ZM570.911 158.09C563.891 158.09 558.221 152.42 558.221 145.4V126.5H563.801V145.4C563.801 149.315 566.996 152.51 570.911 152.51C574.826 152.51 577.976 149.315 577.976 145.4V126.5H583.556V145.4C583.556 152.42 577.886 158.09 570.911 158.09ZM588.51 158V126.455H594.09V158H588.51ZM610.544 158H599.024V152.42H610.409C616.079 152.42 620.624 147.83 620.624 142.205C620.624 136.535 616.079 131.99 610.409 131.99H599.024V126.41H610.409C619.139 126.41 626.204 133.475 626.204 142.205C626.204 150.89 619.184 157.91 610.544 158ZM658.878 135.68V158H653.298V135.68C653.298 133.34 652.938 131.81 651.408 131.81C648.843 131.81 646.548 135.77 645.513 137.435L632.193 158H625.533L638.853 137.435C643.443 130.325 646.413 126.23 652.533 126.23C656.313 126.23 658.878 129.74 658.878 135.68ZM674.08 158V131.99H663.82V126.41H689.965V131.99H679.66V158H674.08ZM694.9 158V126.455H700.48V158H694.9ZM720.381 126.095C729.246 126.095 736.491 133.295 736.491 142.205C736.491 151.07 729.246 158.315 720.381 158.315C711.471 158.315 704.271 151.07 704.271 142.205C704.271 133.295 711.471 126.095 720.381 126.095ZM720.381 152.735C726.141 152.735 730.911 147.92 730.911 142.16C730.911 136.4 726.141 131.675 720.381 131.675C714.621 131.675 709.851 136.4 709.851 142.16C709.851 147.92 714.621 152.735 720.381 152.735ZM772.014 126.41V148.685C772.014 155.66 768.504 158 766.344 158C761.934 158 760.314 156.245 756.444 148.1L751.944 138.65C750.594 135.77 746.814 127.04 747.039 135.68V158H741.459V135.68C741.459 128.705 744.924 126.41 747.084 126.41C751.539 126.41 753.114 128.12 756.984 136.265L761.664 146.075C763.284 149.675 766.659 156.74 766.434 148.685V126.41H772.014ZM776.977 155.255C776.977 151.565 782.557 151.565 782.557 155.255C782.557 158.9 776.977 158.945 776.977 155.255Z" fill="url(#paint1_radial_270527_23)"/>
<path d="M17.3177 32V22.685C17.3177 17.555 21.4577 13.415 26.5877 13.415H34.1027C38.9627 13.415 38.9627 5.99 34.1027 5.99H17.3177V0.409999H34.1027C39.2327 0.409999 43.3727 4.55 43.3727 9.68C43.3727 14.45 39.8177 18.365 35.1827 18.905V18.995H26.5877C24.5177 18.995 22.8977 20.66 22.8977 22.685V32H17.3177ZM70.4047 9.68V32H64.8247V9.68C64.8247 7.34 64.4647 5.81 62.9347 5.81C60.3697 5.81 58.0747 9.77 57.0397 11.435L43.7197 32H37.0597L50.3797 11.435C54.9697 4.325 57.9397 0.229999 64.0597 0.229999C67.8397 0.229999 70.4047 3.74 70.4047 9.68ZM95.6416 18.32L102.932 32H96.6316L93.5266 26.06C91.8166 23.135 90.1516 18.995 88.3066 18.995H84.6166C82.5916 18.995 80.9266 20.66 80.9266 22.685V32H75.3466V22.685C75.3466 17.555 79.4866 13.415 84.6166 13.415H92.1316C97.0366 13.415 97.0366 5.99 92.1316 5.99H75.3466V0.409999H92.1316C102.302 0.409999 105.002 14.495 95.6416 18.32ZM115.895 32V5.99H105.635V0.409999H131.78V5.99H121.475V32H115.895ZM167.27 0.409999V22.685C167.27 29.66 163.76 32 161.6 32C157.19 32 155.57 30.245 151.7 22.1L147.2 12.65C145.85 9.77 142.07 1.04 142.295 9.68V32H136.715V9.68C136.715 2.705 140.18 0.409999 142.34 0.409999C146.795 0.409999 148.37 2.12 152.24 10.265L156.92 20.075C158.54 23.675 161.915 30.74 161.69 22.685V0.409999H167.27ZM199.414 32H187.939C179.254 31.91 172.234 24.89 172.234 16.205C172.234 7.475 179.299 0.409999 188.029 0.409999H199.414V5.99H188.029C182.404 5.99 177.814 10.535 177.814 16.205C177.814 21.83 182.404 26.42 188.029 26.42H199.414V32ZM195.094 18.995H184.609V13.415H195.094V18.995ZM224.663 18.32L231.953 32H225.653L222.548 26.06C220.838 23.135 219.173 18.995 217.328 18.995H213.638C211.613 18.995 209.948 20.66 209.948 22.685V32H204.368V22.685C204.368 17.555 208.508 13.415 213.638 13.415H221.153C226.058 13.415 226.058 5.99 221.153 5.99H204.368V0.409999H221.153C231.323 0.409999 234.023 14.495 224.663 18.32ZM276.09 9.455V23.135C276.09 23.135 275.865 26.51 276.63 26.51C277.26 26.51 277.71 24.98 278.97 21.74L287.475 0.499998H293.46L285 21.74C282.48 28.625 280.275 32.09 275.82 32.09C272.67 32.09 270.51 28.85 270.51 23.135V9.455C270.51 9.455 270.69 6.08 269.925 6.08C269.385 6.08 268.98 7.16 268.08 9.455H268.125L263.22 21.74C260.7 28.625 258.495 32.09 254.04 32.09C250.89 32.09 248.73 28.85 248.73 23.135V0.499998H254.31V23.135C254.31 23.135 254.085 26.51 254.85 26.51C255.48 26.51 255.93 24.98 257.19 21.74L261.6 10.67C264.12 3.92 266.325 0.499998 270.735 0.499998C273.885 0.499998 276.09 3.695 276.09 9.455ZM298.399 32V0.454998H303.979V32H298.399ZM319.172 32V5.99H308.912V0.409999H335.057V5.99H324.752V32H319.172ZM361.772 32V18.86H345.572V32H339.992V0.454998H345.572V13.28H361.772V0.454998H367.352V32H361.772ZM405.734 19.04H396.734V13.46H405.734C410.864 13.46 415.004 17.6 415.004 22.73C415.004 27.86 410.864 32 405.734 32H399.839C391.154 31.955 384.134 24.935 384.134 16.25C384.134 7.52 391.199 0.454998 399.929 0.454998H411.314V6.035H399.929C394.259 6.035 389.714 10.58 389.714 16.25C389.714 21.875 394.259 26.42 399.929 26.42H405.734C410.639 26.42 410.639 19.04 405.734 19.04ZM448.823 9.68V32H443.243V9.68C443.243 7.34 442.883 5.81 441.353 5.81C438.788 5.81 436.493 9.77 435.458 11.435L422.138 32H415.478L428.798 11.435C433.388 4.325 436.358 0.229999 442.478 0.229999C446.258 0.229999 448.823 3.74 448.823 9.68ZM463.08 26.42H474.78V32H463.08C457.95 32 453.765 27.815 453.765 22.685V0.454998H459.345V22.685C459.345 24.755 461.01 26.42 463.08 26.42ZM479.747 32V0.454998H485.327V32H479.747ZM499.576 26.42H511.276V32H499.576C494.446 32 490.261 27.815 490.261 22.685V0.454998H495.841V22.685C495.841 24.755 497.506 26.42 499.576 26.42ZM541.182 32H529.707C521.022 31.91 514.002 24.89 514.002 16.205C514.002 7.475 521.067 0.409999 529.797 0.409999H541.182V5.99H529.797C524.172 5.99 519.582 10.535 519.582 16.205C519.582 21.83 524.172 26.42 529.797 26.42H541.182V32ZM536.862 18.995H526.377V13.415H536.862V18.995ZM560.005 0.0949977C568.87 0.0949977 576.115 7.295 576.115 16.205C576.115 25.07 568.87 32.315 560.005 32.315C551.095 32.315 543.895 25.07 543.895 16.205C543.895 7.295 551.095 0.0949977 560.005 0.0949977ZM560.005 26.735C565.765 26.735 570.535 21.92 570.535 16.16C570.535 10.4 565.765 5.675 560.005 5.675C554.245 5.675 549.475 10.4 549.475 16.16C549.475 21.92 554.245 26.735 560.005 26.735ZM620.095 32H608.62C599.935 31.91 592.915 24.89 592.915 16.205C592.915 7.475 599.98 0.409999 608.665 0.409999H620.095V5.99H608.665C603.04 5.99 598.495 10.535 598.495 16.205C598.495 21.83 603.04 26.42 608.665 26.42H620.095V32ZM658.395 9.68V32H652.815V9.68C652.815 7.34 652.455 5.81 650.925 5.81C648.36 5.81 646.065 9.77 645.03 11.435L631.71 32H625.05L638.37 11.435C642.96 4.325 645.93 0.229999 652.05 0.229999C655.83 0.229999 658.395 3.74 658.395 9.68ZM663.337 32V22.685C663.337 17.555 667.477 13.415 672.607 13.415H680.122C684.982 13.415 684.982 5.99 680.122 5.99H663.337V0.409999H680.122C685.252 0.409999 689.392 4.55 689.392 9.68C689.392 14.45 685.837 18.365 681.202 18.905V18.995H672.607C670.537 18.995 668.917 20.66 668.917 22.685V32H663.337ZM694.329 32V0.454998H699.909V32H694.329ZM715.102 32V5.99H704.842V0.409999H730.987V5.99H720.682V32H715.102ZM760.258 9.68V32H754.678V9.68C754.678 7.34 754.318 5.81 752.788 5.81C750.223 5.81 747.928 9.77 746.893 11.435L733.573 32H726.913L740.233 11.435C744.823 4.325 747.793 0.229999 753.913 0.229999C757.693 0.229999 760.258 3.74 760.258 9.68ZM774.515 26.42H786.215V32H774.515C769.385 32 765.2 27.815 765.2 22.685V0.454998H770.78V22.685C770.78 24.755 772.445 26.42 774.515 26.42ZM34.0294 72.68V95H28.4494V72.68C28.4494 70.34 28.0894 68.81 26.5594 68.81C23.9944 68.81 21.6994 72.77 20.6644 74.435L7.34439 95H0.684387L14.0044 74.435C18.5944 67.325 21.5644 63.23 27.6844 63.23C31.4644 63.23 34.0294 66.74 34.0294 72.68ZM69.5263 63.41V85.685C69.5263 92.66 66.0163 95 63.8563 95C59.4463 95 57.8263 93.245 53.9563 85.1L49.4563 75.65C48.1063 72.77 44.3263 64.04 44.5513 72.68V95H38.9713V72.68C38.9713 65.705 42.4363 63.41 44.5963 63.41C49.0513 63.41 50.6263 65.12 54.4963 73.265L59.1763 83.075C60.7963 86.675 64.1713 93.74 63.9463 85.685V63.41H69.5263ZM86.0097 95H74.4897V89.42H85.8747C91.5447 89.42 96.0897 84.83 96.0897 79.205C96.0897 73.535 91.5447 68.99 85.8747 68.99H74.4897V63.41H85.8747C94.6047 63.41 101.67 70.475 101.67 79.205C101.67 87.89 94.6497 94.91 86.0097 95ZM145.636 95H134.161C125.476 94.91 118.456 87.89 118.456 79.205C118.456 70.475 125.521 63.41 134.251 63.41H145.636V68.99H134.251C128.626 68.99 124.036 73.535 124.036 79.205C124.036 84.83 128.626 89.42 134.251 89.42H145.636V95ZM141.316 81.995H130.831V76.415H141.316V81.995ZM159.456 79.25C157.296 76.865 155.991 73.67 155.046 71.96L150.591 63.455H156.891L159.996 69.35C161.661 72.275 163.371 76.46 165.216 76.46C169.671 76.46 168.861 77 173.046 69.35L176.151 63.455H182.451L177.996 71.96C177.051 73.67 175.746 76.865 173.586 79.25C175.746 81.59 177.051 84.785 177.996 86.495L182.451 95H176.151L173.046 89.105C171.381 86.18 169.671 82.04 167.826 82.04C163.371 82.04 164.181 81.5 159.996 89.105L156.891 95H150.591L155.046 86.495C155.991 84.785 157.296 81.59 159.456 79.25ZM187.383 95V85.685C187.383 80.555 191.523 76.415 196.653 76.415H204.168C209.028 76.415 209.028 68.99 204.168 68.99H187.383V63.41H204.168C209.298 63.41 213.438 67.55 213.438 72.68C213.438 77.45 209.883 81.365 205.248 81.905V81.995H196.653C194.583 81.995 192.963 83.66 192.963 85.685V95H187.383ZM243.314 95H231.839C223.154 94.91 216.134 87.89 216.134 79.205C216.134 70.475 223.199 63.41 231.929 63.41H243.314V68.99H231.929C226.304 68.99 221.714 73.535 221.714 79.205C221.714 84.83 226.304 89.42 231.929 89.42H243.314V95ZM238.994 81.995H228.509V76.415H238.994V81.995ZM268.564 81.32L275.854 95H269.554L266.449 89.06C264.739 86.135 263.074 81.995 261.229 81.995H257.539C255.514 81.995 253.849 83.66 253.849 85.685V95H248.269V85.685C248.269 80.555 252.409 76.415 257.539 76.415H265.054C269.959 76.415 269.959 68.99 265.054 68.99H248.269V63.41H265.054C275.224 63.41 277.924 77.495 268.564 81.32ZM280.799 95V63.455H286.379V95H280.799ZM318.492 95H307.017C298.332 94.91 291.312 87.89 291.312 79.205C291.312 70.475 298.377 63.41 307.107 63.41H318.492V68.99H307.107C301.482 68.99 296.892 73.535 296.892 79.205C296.892 84.83 301.482 89.42 307.107 89.42H318.492V95ZM314.172 81.995H303.687V76.415H314.172V81.995ZM354.002 63.41V85.685C354.002 92.66 350.492 95 348.332 95C343.922 95 342.302 93.245 338.432 85.1L333.932 75.65C332.582 72.77 328.802 64.04 329.027 72.68V95H323.447V72.68C323.447 65.705 326.912 63.41 329.072 63.41C333.527 63.41 335.102 65.12 338.972 73.265L343.652 83.075C345.272 86.675 348.647 93.74 348.422 85.685V63.41H354.002ZM386.145 95H374.67C365.985 94.91 358.965 87.89 358.965 79.205C358.965 70.475 366.03 63.41 374.715 63.41H386.145V68.99H374.715C369.09 68.99 364.545 73.535 364.545 79.205C364.545 84.83 369.09 89.42 374.715 89.42H386.145V95ZM416.039 95H404.564C395.879 94.91 388.859 87.89 388.859 79.205C388.859 70.475 395.924 63.41 404.654 63.41H416.039V68.99H404.654C399.029 68.99 394.439 73.535 394.439 79.205C394.439 84.83 399.029 89.42 404.654 89.42H416.039V95ZM411.719 81.995H401.234V76.415H411.719V81.995ZM443.085 95V68.99H432.825V63.41H458.97V68.99H448.665V95H443.085ZM485.685 95V81.86H469.485V95H463.905V63.455H469.485V76.28H485.685V63.455H491.265V95H485.685ZM523.395 95H511.92C503.235 94.91 496.215 87.89 496.215 79.205C496.215 70.475 503.28 63.41 512.01 63.41H523.395V68.99H512.01C506.385 68.99 501.795 73.535 501.795 79.205C501.795 84.83 506.385 89.42 512.01 89.42H523.395V95ZM519.075 81.995H508.59V76.415H519.075V81.995ZM545.762 79.205V95H540.182V79.205C540.182 70.475 547.202 63.41 556.112 63.41H567.497V68.99H555.977C550.307 68.99 545.762 73.535 545.762 79.205ZM563.177 81.995H552.692V76.415H563.177V81.995ZM585.138 95.09C578.118 95.09 572.448 89.42 572.448 82.4V63.5H578.028V82.4C578.028 86.315 581.223 89.51 585.138 89.51C589.053 89.51 592.203 86.315 592.203 82.4V63.5H597.783V82.4C597.783 89.42 592.113 95.09 585.138 95.09ZM612.997 95V68.99H602.737V63.41H628.882V68.99H618.577V95H612.997ZM646.507 95.09C639.487 95.09 633.817 89.42 633.817 82.4V63.5H639.397V82.4C639.397 86.315 642.592 89.51 646.507 89.51C650.422 89.51 653.572 86.315 653.572 82.4V63.5H659.152V82.4C659.152 89.42 653.482 95.09 646.507 95.09ZM684.401 81.32L691.691 95H685.391L682.286 89.06C680.576 86.135 678.911 81.995 677.066 81.995H673.376C671.351 81.995 669.686 83.66 669.686 85.685V95H664.106V85.685C664.106 80.555 668.246 76.415 673.376 76.415H680.891C685.796 76.415 685.796 68.99 680.891 68.99H664.106V63.41H680.891C691.061 63.41 693.761 77.495 684.401 81.32ZM721.575 95H710.1C701.415 94.91 694.395 87.89 694.395 79.205C694.395 70.475 701.46 63.41 710.19 63.41H721.575V68.99H710.19C704.565 68.99 699.975 73.535 699.975 79.205C699.975 84.83 704.565 89.42 710.19 89.42H721.575V95ZM717.255 81.995H706.77V76.415H717.255V81.995ZM754.471 63.095C763.336 63.095 770.581 70.295 770.581 79.205C770.581 88.07 763.336 95.315 754.471 95.315C745.561 95.315 738.361 88.07 738.361 79.205C738.361 70.295 745.561 63.095 754.471 63.095ZM754.471 89.735C760.231 89.735 765.001 84.92 765.001 79.16C765.001 73.4 760.231 68.675 754.471 68.675C748.711 68.675 743.941 73.4 743.941 79.16C743.941 84.92 748.711 89.735 754.471 89.735ZM781.129 79.205V95H775.549V79.205C775.549 70.475 782.569 63.41 791.479 63.41H802.864V68.99H791.344C785.674 68.99 781.129 73.535 781.129 79.205ZM798.544 81.995H788.059V76.415H798.544V81.995ZM48.6391 158H37.1641C28.4791 157.91 21.4591 150.89 21.4591 142.205C21.4591 133.475 28.5241 126.41 37.2091 126.41H48.6391V131.99H37.2091C31.5841 131.99 27.0391 136.535 27.0391 142.205C27.0391 147.83 31.5841 152.42 37.2091 152.42H48.6391V158ZM73.8886 144.32L81.1786 158H74.8786L71.7736 152.06C70.0636 149.135 68.3986 144.995 66.5536 144.995H62.8636C60.8386 144.995 59.1736 146.66 59.1736 148.685V158H53.5936V148.685C53.5936 143.555 57.7336 139.415 62.8636 139.415H70.3786C75.2836 139.415 75.2836 131.99 70.3786 131.99H53.5936V126.41H70.3786C80.5486 126.41 83.2486 140.495 73.8886 144.32ZM94.7813 158V144.86C89.8763 143.825 87.5363 137.57 86.0963 134.96L81.6413 126.455H87.9413L91.0463 132.35C92.7113 135.275 94.4213 139.46 96.2663 139.46C100.541 139.46 99.9113 140.09 104.096 132.35L107.201 126.455H113.501L109.046 134.96C107.561 137.57 105.266 143.825 100.361 144.86V158H94.7813ZM118.434 158V148.685C118.434 143.555 122.574 139.415 127.704 139.415H135.219C140.079 139.415 140.079 131.99 135.219 131.99H118.434V126.41H135.219C140.349 126.41 144.489 130.55 144.489 135.68C144.489 140.45 140.934 144.365 136.299 144.905V144.995H127.704C125.634 144.995 124.014 146.66 124.014 148.685V158H118.434ZM158.543 158V131.99H148.283V126.41H174.428V131.99H164.123V158H158.543ZM192.09 126.095C200.955 126.095 208.2 133.295 208.2 142.205C208.2 151.07 200.955 158.315 192.09 158.315C183.18 158.315 175.98 151.07 175.98 142.205C175.98 133.295 183.18 126.095 192.09 126.095ZM192.09 152.735C197.85 152.735 202.62 147.92 202.62 142.16C202.62 136.4 197.85 131.675 192.09 131.675C186.33 131.675 181.56 136.4 181.56 142.16C181.56 147.92 186.33 152.735 192.09 152.735ZM239.205 158H227.73C219.045 157.91 212.025 150.89 212.025 142.205C212.025 133.475 219.09 126.41 227.775 126.41H239.205V131.99H227.775C222.15 131.99 217.605 136.535 217.605 142.205C217.605 147.83 222.15 152.42 227.775 152.42H239.205V158ZM256.85 158.09C249.83 158.09 244.16 152.42 244.16 145.4V126.5H249.74V145.4C249.74 149.315 252.935 152.51 256.85 152.51C260.765 152.51 263.915 149.315 263.915 145.4V126.5H269.495V145.4C269.495 152.42 263.825 158.09 256.85 158.09ZM294.744 144.32L302.034 158H295.734L292.629 152.06C290.919 149.135 289.254 144.995 287.409 144.995H283.719C281.694 144.995 280.029 146.66 280.029 148.685V158H274.449V148.685C274.449 143.555 278.589 139.415 283.719 139.415H291.234C296.139 139.415 296.139 131.99 291.234 131.99H274.449V126.41H291.234C301.404 126.41 304.104 140.495 294.744 144.32ZM327.274 144.32L334.564 158H328.264L325.159 152.06C323.449 149.135 321.784 144.995 319.939 144.995H316.249C314.224 144.995 312.559 146.66 312.559 148.685V158H306.979V148.685C306.979 143.555 311.119 139.415 316.249 139.415H323.764C328.669 139.415 328.669 131.99 323.764 131.99H306.979V126.41H323.764C333.934 126.41 336.634 140.495 327.274 144.32ZM364.448 158H352.973C344.288 157.91 337.268 150.89 337.268 142.205C337.268 133.475 344.333 126.41 353.063 126.41H364.448V131.99H353.063C347.438 131.99 342.848 136.535 342.848 142.205C342.848 147.83 347.438 152.42 353.063 152.42H364.448V158ZM360.128 144.995H349.643V139.415H360.128V144.995ZM399.957 126.41V148.685C399.957 155.66 396.447 158 394.287 158C389.877 158 388.257 156.245 384.387 148.1L379.887 138.65C378.537 135.77 374.757 127.04 374.982 135.68V158H369.402V135.68C369.402 128.705 372.867 126.41 375.027 126.41C379.482 126.41 381.057 128.12 384.927 136.265L389.607 146.075C391.227 149.675 394.602 156.74 394.377 148.685V126.41H399.957ZM432.101 158H420.626C411.941 157.91 404.921 150.89 404.921 142.205C404.921 133.475 411.986 126.41 420.671 126.41H432.101V131.99H420.671C415.046 131.99 410.501 136.535 410.501 142.205C410.501 147.83 415.046 152.42 420.671 152.42H432.101V158ZM450.195 158V144.86C445.29 143.825 442.95 137.57 441.51 134.96L437.055 126.455H443.355L446.46 132.35C448.125 135.275 449.835 139.46 451.68 139.46C455.955 139.46 455.325 140.09 459.51 132.35L462.615 126.455H468.915L464.46 134.96C462.975 137.57 460.68 143.825 455.775 144.86V158H450.195ZM494.995 152.42H506.695V158H494.995C489.865 158 485.68 153.815 485.68 148.685V126.455H491.26V148.685C491.26 150.755 492.925 152.42 494.995 152.42ZM511.662 158V126.455H517.242V158H511.662ZM538.285 126.095C553.99 126.095 560.335 146.345 547.555 155.345L551.02 161.555H544.63L542.515 157.73C532.3 160.52 522.175 152.87 522.175 142.205C522.175 133.295 529.375 126.095 538.285 126.095ZM538.285 152.735C538.735 152.735 539.23 152.69 539.68 152.645L535.585 145.22H541.93L544.81 150.395C552.685 144.05 548.05 131.675 538.285 131.675C532.525 131.675 527.755 136.4 527.755 142.16C527.755 147.92 532.525 152.735 538.285 152.735ZM570.911 158.09C563.891 158.09 558.221 152.42 558.221 145.4V126.5H563.801V145.4C563.801 149.315 566.996 152.51 570.911 152.51C574.826 152.51 577.976 149.315 577.976 145.4V126.5H583.556V145.4C583.556 152.42 577.886 158.09 570.911 158.09ZM588.51 158V126.455H594.09V158H588.51ZM610.544 158H599.024V152.42H610.409C616.079 152.42 620.624 147.83 620.624 142.205C620.624 136.535 616.079 131.99 610.409 131.99H599.024V126.41H610.409C619.139 126.41 626.204 133.475 626.204 142.205C626.204 150.89 619.184 157.91 610.544 158ZM658.878 135.68V158H653.298V135.68C653.298 133.34 652.938 131.81 651.408 131.81C648.843 131.81 646.548 135.77 645.513 137.435L632.193 158H625.533L638.853 137.435C643.443 130.325 646.413 126.23 652.533 126.23C656.313 126.23 658.878 129.74 658.878 135.68ZM674.08 158V131.99H663.82V126.41H689.965V131.99H679.66V158H674.08ZM694.9 158V126.455H700.48V158H694.9ZM720.381 126.095C729.246 126.095 736.491 133.295 736.491 142.205C736.491 151.07 729.246 158.315 720.381 158.315C711.471 158.315 704.271 151.07 704.271 142.205C704.271 133.295 711.471 126.095 720.381 126.095ZM720.381 152.735C726.141 152.735 730.911 147.92 730.911 142.16C730.911 136.4 726.141 131.675 720.381 131.675C714.621 131.675 709.851 136.4 709.851 142.16C709.851 147.92 714.621 152.735 720.381 152.735ZM772.014 126.41V148.685C772.014 155.66 768.504 158 766.344 158C761.934 158 760.314 156.245 756.444 148.1L751.944 138.65C750.594 135.77 746.814 127.04 747.039 135.68V158H741.459V135.68C741.459 128.705 744.924 126.41 747.084 126.41C751.539 126.41 753.114 128.12 756.984 136.265L761.664 146.075C763.284 149.675 766.659 156.74 766.434 148.685V126.41H772.014ZM776.977 155.255C776.977 151.565 782.557 151.565 782.557 155.255C782.557 158.9 776.977 158.945 776.977 155.255Z" fill="url(#paint2_radial_270527_23)" fill-opacity="0.8"/>
<defs>
<linearGradient id="paint0_linear_270527_23" x1="-23" y1="-11" x2="114.349" y2="452.28" gradientUnits="userSpaceOnUse">
<stop stop-color="#3B10D8"/>
<stop offset="0.415" stop-color="#3F15D9"/>
<stop offset="1" stop-color="#FEF7F8"/>
</linearGradient>
<radialGradient id="paint1_radial_270527_23" cx="0" cy="0" r="1" gradientUnits="userSpaceOnUse" gradientTransform="translate(827 1.48333) rotate(158.065) scale(610.89 443.371)">
<stop stop-color="#1BF8FD"/>
<stop offset="0.338135" stop-color="#1CF1FC" stop-opacity="0.6"/>
<stop offset="0.661415" stop-color="#9F85F3" stop-opacity="0.3"/>
<stop offset="1" stop-color="white" stop-opacity="0"/>
</radialGradient>
<radialGradient id="paint2_radial_270527_23" cx="0" cy="0" r="1" gradientUnits="userSpaceOnUse" gradientTransform="translate(-8.83332 31) rotate(18.0827) scale(339.037 201.005)">
<stop stop-color="#3B10D8"/>
<stop offset="1" stop-color="#3B10D8" stop-opacity="0"/>
</radialGradient>
</defs>
</svg>
