<svg width="601" height="105" viewBox="0 0 601 105" fill="none" xmlns="http://www.w3.org/2000/svg">
<path d="M10.51 32V5.99H0.25V0.409999H26.395V5.99H16.09V32H10.51ZM53.1099 32V18.86H36.9099V32H31.3299V0.454998H36.9099V13.28H53.1099V0.454998H58.6899V32H53.1099ZM90.8202 32H79.3452C70.6602 31.91 63.6402 24.89 63.6402 16.205C63.6402 7.475 70.7052 0.409999 79.4352 0.409999H90.8202V5.99H79.4352C73.8102 5.99 69.2202 10.535 69.2202 16.205C69.2202 21.83 73.8102 26.42 79.4352 26.42H90.8202V32ZM86.5002 18.995H76.0152V13.415H86.5002V18.995ZM134.787 32H123.312C114.627 31.91 107.607 24.89 107.607 16.205C107.607 7.475 114.672 0.409999 123.357 0.409999H134.787V5.99H123.357C117.732 5.99 113.187 10.535 113.187 16.205C113.187 21.83 117.732 26.42 123.357 26.42H134.787V32ZM160.036 18.32L167.326 32H161.026L157.921 26.06C156.211 23.135 154.546 18.995 152.701 18.995H149.011C146.986 18.995 145.321 20.66 145.321 22.685V32H139.741V22.685C139.741 17.555 143.881 13.415 149.011 13.415H156.526C161.431 13.415 161.431 5.99 156.526 5.99H139.741V0.409999H156.526C166.696 0.409999 169.396 14.495 160.036 18.32ZM180.929 32V18.86C176.024 17.825 173.684 11.57 172.244 8.96L167.789 0.454998H174.089L177.194 6.35C178.859 9.275 180.569 13.46 182.414 13.46C186.689 13.46 186.059 14.09 190.244 6.35L193.349 0.454998H199.649L195.194 8.96C193.709 11.57 191.414 17.825 186.509 18.86V32H180.929ZM204.582 32V22.685C204.582 17.555 208.722 13.415 213.852 13.415H221.367C226.227 13.415 226.227 5.99 221.367 5.99H204.582V0.409999H221.367C226.497 0.409999 230.637 4.55 230.637 9.68C230.637 14.45 227.082 18.365 222.447 18.905V18.995H213.852C211.782 18.995 210.162 20.66 210.162 22.685V32H204.582ZM244.691 32V5.99H234.431V0.409999H260.576V5.99H250.271V32H244.691ZM278.237 0.0949977C287.102 0.0949977 294.347 7.295 294.347 16.205C294.347 25.07 287.102 32.315 278.237 32.315C269.327 32.315 262.127 25.07 262.127 16.205C262.127 7.295 269.327 0.0949977 278.237 0.0949977ZM278.237 26.735C283.997 26.735 288.767 21.92 288.767 16.16C288.767 10.4 283.997 5.675 278.237 5.675C272.477 5.675 267.707 10.4 267.707 16.16C267.707 21.92 272.477 26.735 278.237 26.735ZM338.327 32H326.852C318.167 31.91 311.147 24.89 311.147 16.205C311.147 7.475 318.212 0.409999 326.897 0.409999H338.327V5.99H326.897C321.272 5.99 316.727 10.535 316.727 16.205C316.727 21.83 321.272 26.42 326.897 26.42H338.327V32ZM365.062 32V18.86H348.862V32H343.282V0.454998H348.862V13.28H365.062V0.454998H370.642V32H365.062ZM408.937 9.68V32H403.357V9.68C403.357 7.34 402.997 5.81 401.467 5.81C398.902 5.81 396.607 9.77 395.572 11.435L382.252 32H375.592L388.912 11.435C393.502 4.325 396.472 0.229999 402.592 0.229999C406.372 0.229999 408.937 3.74 408.937 9.68ZM423.194 26.42H434.894V32H423.194C418.064 32 413.879 27.815 413.879 22.685V0.454998H419.459V22.685C419.459 24.755 421.124 26.42 423.194 26.42ZM446.935 26.42H458.635V32H446.935C441.805 32 437.62 27.815 437.62 22.685V0.454998H443.2V22.685C443.2 24.755 444.865 26.42 446.935 26.42ZM488.541 32H477.066C468.381 31.91 461.361 24.89 461.361 16.205C461.361 7.475 468.426 0.409999 477.156 0.409999H488.541V5.99H477.156C471.531 5.99 466.941 10.535 466.941 16.205C466.941 21.83 471.531 26.42 477.156 26.42H488.541V32ZM484.221 18.995H473.736V13.415H484.221V18.995ZM524.051 0.409999V22.685C524.051 29.66 520.541 32 518.381 32C513.971 32 512.351 30.245 508.481 22.1L503.981 12.65C502.631 9.77 498.851 1.04 499.076 9.68V32H493.496V9.68C493.496 2.705 496.961 0.409999 499.121 0.409999C503.576 0.409999 505.151 2.12 509.021 10.265L513.701 20.075C515.321 23.675 518.696 30.74 518.471 22.685V0.409999H524.051ZM550.614 19.04H541.614V13.46H550.614C555.744 13.46 559.884 17.6 559.884 22.73C559.884 27.86 555.744 32 550.614 32H544.719C536.034 31.955 529.014 24.935 529.014 16.25C529.014 7.52 536.079 0.454998 544.809 0.454998H556.194V6.035H544.809C539.139 6.035 534.594 10.58 534.594 16.25C534.594 21.875 539.139 26.42 544.809 26.42H550.614C555.519 26.42 555.519 19.04 550.614 19.04ZM589.779 32H578.304C569.619 31.91 562.599 24.89 562.599 16.205C562.599 7.475 569.664 0.409999 578.394 0.409999H589.779V5.99H578.394C572.769 5.99 568.179 10.535 568.179 16.205C568.179 21.83 572.769 26.42 578.394 26.42H589.779V32ZM585.459 18.995H574.974V13.415H585.459V18.995ZM594.733 13.955C594.733 10.265 600.313 10.265 600.313 13.955C600.313 17.645 594.733 17.645 594.733 13.955ZM594.733 26.69C594.733 23 600.313 23 600.313 26.69C600.313 30.335 594.733 30.38 594.733 26.69Z" fill="#5CE1E6"/>
<path d="M0.25 94.775V72.5H5.83V94.775C5.83 97.16 6.19 98.645 7.72 98.645C10.285 98.645 12.58 94.73 13.615 93.02L26.935 72.5H33.595L20.275 93.02C15.685 100.13 12.67 104.225 6.595 104.225C2.815 104.225 0.25 100.76 0.25 94.775ZM47.8793 72.095C56.7443 72.095 63.9893 79.295 63.9893 88.205C63.9893 97.07 56.7443 104.315 47.8793 104.315C38.9693 104.315 31.7693 97.07 31.7693 88.205C31.7693 79.295 38.9693 72.095 47.8793 72.095ZM47.8793 98.735C53.6393 98.735 58.4093 93.92 58.4093 88.16C58.4093 82.4 53.6393 77.675 47.8793 77.675C42.1193 77.675 37.3493 82.4 37.3493 88.16C37.3493 93.92 42.1193 98.735 47.8793 98.735ZM78.2726 98.42H89.9726V104H78.2726C73.1426 104 68.9576 99.815 68.9576 94.685V72.455H74.5376V94.685C74.5376 96.755 76.2026 98.42 78.2726 98.42ZM128.285 81.68V104H122.705V81.68C122.705 79.34 122.345 77.81 120.815 77.81C118.25 77.81 115.955 81.77 114.92 83.435L101.6 104H94.9398L108.26 83.435C112.85 76.325 115.82 72.23 121.94 72.23C125.72 72.23 128.285 75.74 128.285 81.68ZM143.487 104V77.99H133.227V72.41H159.372V77.99H149.067V104H143.487ZM164.307 104V72.455H169.887V104H164.307ZM184.135 98.42H195.835V104H184.135C179.005 104 174.82 99.815 174.82 94.685V72.455H180.4V94.685C180.4 96.755 182.065 98.42 184.135 98.42ZM200.802 104V72.455H206.382V104H200.802ZM221.576 104V77.99H211.316V72.41H237.461V77.99H227.156V104H221.576ZM255.536 104V90.86C250.631 89.825 248.291 83.57 246.851 80.96L242.396 72.455H248.696L251.801 78.35C253.466 81.275 255.176 85.46 257.021 85.46C261.296 85.46 260.666 86.09 264.851 78.35L267.956 72.455H274.256L269.801 80.96C268.316 83.57 266.021 89.825 261.116 90.86V104H255.536ZM294.125 81.725C294.125 76.595 298.31 72.41 303.44 72.41H307.175C312.305 72.41 316.445 76.595 316.445 81.725C316.445 88.43 311 90.995 305.69 90.995C309.515 94.55 315.365 97.88 318.155 98.78L315.32 104C311.18 102.425 303.395 97.385 298.535 91.49C295.205 93.335 296.51 98.42 300.335 98.42H303.98V104H300.335C291.02 104 287.555 91.715 295.43 86.81C294.62 85.1 294.125 83.39 294.125 81.725ZM301.73 85.415H307.175C312.08 85.415 312.08 77.99 307.175 77.99H303.44C301.37 77.99 299.705 79.655 299.705 81.725C299.705 82.49 300.02 84.425 301.73 85.415ZM344.213 72.41H360.818V77.99H344.213C339.353 77.99 339.353 85.415 344.213 85.415H354.563C359.693 85.415 363.878 89.555 363.878 94.685C363.878 99.815 359.693 104 354.563 104H337.103V98.42H354.563C359.468 98.42 359.468 90.995 354.563 90.995H343.988C338.948 90.86 334.943 86.765 334.943 81.68C334.943 76.55 339.083 72.41 344.213 72.41ZM394.873 104H383.398C374.713 103.91 367.693 96.89 367.693 88.205C367.693 79.475 374.758 72.41 383.488 72.41H394.873V77.99H383.488C377.863 77.99 373.273 82.535 373.273 88.205C373.273 93.83 377.863 98.42 383.488 98.42H394.873V104ZM390.553 90.995H380.068V85.415H390.553V90.995ZM424.766 104H413.291C404.606 103.91 397.586 96.89 397.586 88.205C397.586 79.475 404.651 72.41 413.336 72.41H424.766V77.99H413.336C407.711 77.99 403.166 82.535 403.166 88.205C403.166 93.83 407.711 98.42 413.336 98.42H424.766V104ZM442.411 104.09C435.391 104.09 429.721 98.42 429.721 91.4V72.5H435.301V91.4C435.301 95.315 438.496 98.51 442.411 98.51C446.326 98.51 449.476 95.315 449.476 91.4V72.5H455.056V91.4C455.056 98.42 449.386 104.09 442.411 104.09ZM480.304 90.32L487.594 104H481.294L478.189 98.06C476.479 95.135 474.814 90.995 472.969 90.995H469.279C467.254 90.995 465.589 92.66 465.589 94.685V104H460.009V94.685C460.009 89.555 464.149 85.415 469.279 85.415H476.794C481.699 85.415 481.699 77.99 476.794 77.99H460.009V72.41H476.794C486.964 72.41 489.664 86.495 480.304 90.32ZM492.539 104V72.455H498.119V104H492.539ZM513.313 104V77.99H503.053V72.41H529.198V77.99H518.893V104H513.313ZM547.273 104V90.86C542.368 89.825 540.028 83.57 538.588 80.96L534.133 72.455H540.433L543.538 78.35C545.203 81.275 546.913 85.46 548.758 85.46C553.033 85.46 552.403 86.09 556.588 78.35L559.693 72.455H565.993L561.538 80.96C560.053 83.57 557.758 89.825 552.853 90.86V104H547.273Z" fill="white"/>
</svg>
