<svg width="477" height="118" viewBox="0 0 477 118" fill="none" xmlns="http://www.w3.org/2000/svg">
<path d="M29.584 10.952V25.544C29.584 25.544 29.344 29.144 30.16 29.144C30.832 29.144 31.312 27.512 32.656 24.056L41.728 1.4H48.112L39.088 24.056C36.4 31.4 34.048 35.096 29.296 35.096C25.936 35.096 23.632 31.64 23.632 25.544V10.952C23.632 10.952 23.824 7.352 23.008 7.352C22.432 7.352 22 8.504 21.04 10.952H21.088L15.856 24.056C13.168 31.4 10.816 35.096 6.064 35.096C2.704 35.096 0.4 31.64 0.4 25.544V1.4H6.352V25.544C6.352 25.544 6.112 29.144 6.928 29.144C7.6 29.144 8.08 27.512 9.424 24.056L14.128 12.248C16.816 5.048 19.168 1.4 23.872 1.4C27.232 1.4 29.584 4.808 29.584 10.952ZM76.132 35V20.984H58.852V35H52.9V1.352H58.852V15.032H76.132V1.352H82.084V35H76.132ZM122.452 11.192V35H116.5V11.192C116.5 8.696 116.116 7.064 114.484 7.064C111.748 7.064 109.3 11.288 108.196 13.064L93.9884 35H86.8844L101.092 13.064C105.988 5.48 109.156 1.112 115.684 1.112C119.716 1.112 122.452 4.856 122.452 11.192ZM138.188 35V7.256H127.244V1.304H155.132V7.256H144.14V35H138.188ZM172.056 35V25.064C172.056 19.592 176.472 15.176 181.944 15.176H189.96C195.144 15.176 195.144 7.256 189.96 7.256H172.056V1.304H189.96C195.432 1.304 199.848 5.72 199.848 11.192C199.848 16.28 196.056 20.456 191.112 21.032V21.128H181.944C179.736 21.128 178.008 22.904 178.008 25.064V35H172.056ZM231.236 35H218.996C209.732 34.904 202.244 27.416 202.244 18.152C202.244 8.84 209.78 1.304 219.092 1.304H231.236V7.256H219.092C213.092 7.256 208.196 12.104 208.196 18.152C208.196 24.152 213.092 29.048 219.092 29.048H231.236V35ZM226.628 21.128H215.444V15.176H226.628V21.128ZM250.834 0.967998C260.29 0.967998 268.018 8.648 268.018 18.152C268.018 27.608 260.29 35.336 250.834 35.336C241.33 35.336 233.65 27.608 233.65 18.152C233.65 8.648 241.33 0.967998 250.834 0.967998ZM250.834 29.384C256.978 29.384 262.066 24.248 262.066 18.104C262.066 11.96 256.978 6.92 250.834 6.92C244.69 6.92 239.602 11.96 239.602 18.104C239.602 24.248 244.69 29.384 250.834 29.384ZM271.619 35V25.064C271.619 19.592 276.035 15.176 281.507 15.176H289.523C294.707 15.176 294.707 7.256 289.523 7.256H271.619V1.304H289.523C294.995 1.304 299.411 5.72 299.411 11.192C299.411 16.28 295.619 20.456 290.675 21.032V21.128H281.507C279.299 21.128 277.571 22.904 277.571 25.064V35H271.619ZM314.133 29.048H326.613V35H314.133C308.661 35 304.197 30.536 304.197 25.064V1.352H310.149V25.064C310.149 27.272 311.925 29.048 314.133 29.048ZM358.033 35H345.793C336.529 34.904 329.041 27.416 329.041 18.152C329.041 8.84 336.577 1.304 345.889 1.304H358.033V7.256H345.889C339.889 7.256 334.993 12.104 334.993 18.152C334.993 24.152 339.889 29.048 345.889 29.048H358.033V35ZM353.425 21.128H342.241V15.176H353.425V21.128ZM410.546 11.192V35H404.594V11.192C404.594 8.696 404.21 7.064 402.578 7.064C399.842 7.064 397.394 11.288 396.29 13.064L382.082 35H374.978L389.186 13.064C394.082 5.48 397.25 1.112 403.778 1.112C407.81 1.112 410.546 4.856 410.546 11.192ZM436.986 20.408L444.762 35H438.042L434.73 28.664C432.906 25.544 431.13 21.128 429.162 21.128H425.226C423.066 21.128 421.29 22.904 421.29 25.064V35H415.338V25.064C415.338 19.592 419.754 15.176 425.226 15.176H433.242C438.474 15.176 438.474 7.256 433.242 7.256H415.338V1.304H433.242C444.09 1.304 446.97 16.328 436.986 20.408ZM476.158 35H463.918C454.654 34.904 447.166 27.416 447.166 18.152C447.166 8.84 454.702 1.304 464.014 1.304H476.158V7.256H464.014C458.014 7.256 453.118 12.104 453.118 18.152C453.118 24.152 458.014 29.048 464.014 29.048H476.158V35ZM471.55 21.128H460.366V15.176H471.55V21.128ZM10.288 83.304H28V89.256H10.288C5.104 89.256 5.104 97.176 10.288 97.176H21.328C26.8 97.176 31.264 101.592 31.264 107.064C31.264 112.536 26.8 117 21.328 117H2.704V111.048H21.328C26.56 111.048 26.56 103.128 21.328 103.128H10.048C4.672 102.984 0.4 98.616 0.4 93.192C0.4 87.72 4.816 83.304 10.288 83.304ZM68.0305 93.192V117H62.0785V93.192C62.0785 90.696 61.6945 89.064 60.0625 89.064C57.3265 89.064 54.8785 93.288 53.7745 95.064L39.5665 117H32.4625L46.6705 95.064C51.5665 87.48 54.7345 83.112 61.2625 83.112C65.2945 83.112 68.0305 86.856 68.0305 93.192ZM84.4473 117V102.984C79.2153 101.88 76.7193 95.208 75.1833 92.424L70.4313 83.352H77.1513L80.4633 89.64C82.2393 92.76 84.0633 97.224 86.0313 97.224C90.5913 97.224 89.9193 97.896 94.3833 89.64L97.6953 83.352H104.415L99.6633 92.424C98.0793 95.208 95.6313 101.88 90.3993 102.984V117H84.4473ZM109.197 117V83.352H115.149V117H109.197ZM152.523 83.304V107.064C152.523 114.504 148.779 117 146.475 117C141.771 117 140.043 115.128 135.915 106.44L131.115 96.36C129.675 93.288 125.643 83.976 125.883 93.192V117H119.931V93.192C119.931 85.752 123.627 83.304 125.931 83.304C130.683 83.304 132.363 85.128 136.491 93.816L141.483 104.28C143.211 108.12 146.811 115.656 146.571 107.064V83.304H152.523ZM180.378 103.176H170.778V97.224H180.378C185.85 97.224 190.266 101.64 190.266 107.112C190.266 112.584 185.85 117 180.378 117H174.09C164.826 116.952 157.338 109.464 157.338 100.2C157.338 90.888 164.874 83.352 174.186 83.352H186.33V89.304H174.186C168.138 89.304 163.29 94.152 163.29 100.2C163.29 106.2 168.138 111.048 174.186 111.048H180.378C185.61 111.048 185.61 103.176 180.378 103.176ZM242.781 93.192V117H236.829V93.192C236.829 90.696 236.445 89.064 234.812 89.064C232.077 89.064 229.629 93.288 228.525 95.064L214.317 117H207.213L221.421 95.064C226.317 87.48 229.484 83.112 236.013 83.112C240.045 83.112 242.781 86.856 242.781 93.192ZM247.572 117V107.064C247.572 101.592 251.988 97.176 257.46 97.176H265.476C270.66 97.176 270.66 89.256 265.476 89.256H247.572V83.304H265.476C273.876 83.304 278.388 93.144 273.06 99.528C280.02 105.48 275.844 117 266.628 117H247.572ZM253.524 111.048H266.628C271.86 111.048 271.86 103.128 266.628 103.128H257.46C255.252 103.128 253.524 104.904 253.524 107.064V111.048ZM296.162 82.968C305.618 82.968 313.346 90.648 313.346 100.152C313.346 109.608 305.618 117.336 296.162 117.336C286.658 117.336 278.978 109.608 278.978 100.152C278.978 90.648 286.658 82.968 296.162 82.968ZM296.162 111.384C302.306 111.384 307.394 106.248 307.394 100.104C307.394 93.96 302.306 88.92 296.162 88.92C290.018 88.92 284.93 93.96 284.93 100.104C284.93 106.248 290.018 111.384 296.162 111.384ZM330.483 117.096C322.995 117.096 316.947 111.048 316.947 103.56V83.4H322.899V103.56C322.899 107.736 326.307 111.144 330.483 111.144C334.659 111.144 338.019 107.736 338.019 103.56V83.4H343.971V103.56C343.971 111.048 337.923 117.096 330.483 117.096ZM359.719 117V89.256H348.775V83.304H376.663V89.256H365.671V117H359.719ZM407.124 117.096C399.636 117.096 393.588 111.048 393.588 103.56V83.4H399.54V103.56C399.54 107.736 402.948 111.144 407.124 111.144C411.3 111.144 414.66 107.736 414.66 103.56V83.4H420.612V103.56C420.612 111.048 414.564 117.096 407.124 117.096ZM435.304 83.304H453.016V89.256H435.304C430.12 89.256 430.12 97.176 435.304 97.176H446.344C451.816 97.176 456.28 101.592 456.28 107.064C456.28 112.536 451.816 117 446.344 117H427.72V111.048H446.344C451.576 111.048 451.576 103.128 446.344 103.128H435.064C429.688 102.984 425.416 98.616 425.416 93.192C425.416 87.72 429.832 83.304 435.304 83.304Z" fill="url(#paint0_linear_270590_589)"/>
<defs>
<linearGradient id="paint0_linear_270590_589" x1="-2" y1="64" x2="565" y2="64" gradientUnits="userSpaceOnUse">
<stop stop-color="#1BF8FD"/>
<stop offset="1" stop-color="#3B10D8"/>
</linearGradient>
</defs>
</svg>
